<svg version="1" xmlns="http://www.w3.org/2000/svg" width="933.33" height="933.33" viewBox="0 0 700 700"><path d="M621.7.6c-.1.1-10.5.5-23.2.9-12.6.3-26.6.8-31 1-4.4.2-13.8.7-21 1-7.1.3-15.2.8-18 1-2.7.1-9.7.6-15.5.9-11.2.7-19.1 1.3-28 2.1-3 .3-8.2.7-11.5 1-6 .4-18.4 1.5-24 2-1.6.2-6.8.6-11.4 1-4.7.4-9.2.8-10 1-.9.1-4.7.6-8.6 1-3.8.3-8.3.8-10 1-5.6.8-19 2.4-24 3-4.7.5-18.7 2.3-23 2.9-1.1.2-4.5.7-7.5 1.1-3 .4-6.2.9-7 1-.8.2-5.1.8-9.5 1.4-4.4.7-9.6 1.4-11.5 1.7-1.9.3-4.8.8-6.5 1-1.6.3-5.2.9-8 1.5l-7 1.3c-6.9 1.2-9.4 1.6-13 2.2-2.2.3-8.3 1.4-13.5 2.5-5.2 1.1-10.8 2.2-12.5 2.5-1.6.2-3.7.7-4.5.9-.8.2-2.8.7-4.5.9-5.2.9-25.5 5.6-40 9.3-7.7 1.9-14.8 3.6-15.8 3.8-1 .2-3.2.9-5 1.4-1.8.6-8.8 2.7-15.7 4.6C151.9 65.9 122.2 77 99.5 88c-9.7 4.7-11.5 5.9-15.3 10.9-6.7 8.9-14 18.3-15.9 20.6-4 4.7-11.4 14.5-11 14.5.2 0 6.9-3.1 14.8-6.9 16-7.6 30.1-13.2 49-19.7 12.3-4.1 38.9-11.9 43.9-12.8 1.4-.3 2.5-.5 2.5-.6 0-.1 1.1-.4 2.4-.6 1.4-.2 5.4-1.1 9-2 8.5-1.9 21.1-4.6 23.6-4.9 1.8-.3 4.4-.8 10-1.9 1.1-.2 4-.7 6.5-1.1 2.5-.4 5.2-.9 6-1 4.2-.8 21.1-3.1 29-4 2.5-.2 6.5-.7 9-1 8.5-1 12.5-1.4 20-2 4.1-.4 9.5-.8 12-1 29.3-2.6 96-2.6 128.5 0 2.8.2 8.7.7 13.2 1 4.6.3 9.1.8 10 .9 1 .2 5 .7 8.8 1 3.9.4 8.4.9 10 1.1 1.7.3 5.1.7 7.8 1 9.8 1.1 14.2 1.6 15.7 2 .8.2 3.8.7 6.5 1.1 2.8.3 5.3.8 5.6 1 .3.1 2.8.6 5.5.9 2.7.4 6.9 1.1 9.4 1.5l4.5.9 6.5-6.8c23.6-24.6 60-46.3 104-61.8 6.9-2.4 13.4-4.6 14.5-4.9 2.9-.7 3.8-1 5.5-1.7 2.6-1 24.3-6.6 28-7.2 1.9-.3 6.9-1.4 11-2.4l7.5-1.9-37.8.1c-20.8.1-37.9.3-38 .3z"/><path d="M264.5 369c.1 155.1-.1 282-.2 282-.2 0-1.1-.4-2.1-.9-.9-.5-6.6-2.8-12.7-5.2-6-2.3-14.1-5.8-18-7.6l-7-3.3-.5-178.5-.5-178.4-6.5 6-19.5 18.4c-7.1 6.7-14.6 13.7-16.5 15.5-1.9 1.8-9.5 8.9-16.9 15.9-7.4 6.9-14.8 13.9-16.6 15.6-1.7 1.6-6.9 6.6-11.6 11l-8.4 7.9-.1 98.6c-.1 54.2-.2 98.7-.3 98.9-.3 1.1-18.3-19.6-26-29.7-11.8-15.7-25.3-38.6-32.5-55.5-.9-2-2.3-5.3-3.2-7.3-3.5-7.9-10.4-30.8-11.9-39.3-.3-1.9-.7-3.7-.9-4-.4-.6-.7-2.4-2.6-14.6-2.1-14.1-3-42.6-1.6-54.3.3-2.6.8-7.1 1.1-10.1.7-6.7 3.9-23.1 6.7-33.1 12.1-45.1 36.8-86.8 72.1-122.1 9.5-9.6 25.4-23.7 33-29.3 2.1-1.5 3.6-3 3.4-3.2-.4-.5-16.3 5.4-34.7 12.8-12.9 5.1-42.3 19.4-49.7 24.1-2.4 1.5-4.7 2.7-5.3 2.7-.5 0-1 .4-1 .9s-1.5 1.6-3.4 2.5c-9.2 4.4-33.8 24.9-40.7 34.1-4.2 5.6-8.7 15.7-14.2 31.5-3.6 10.5-9 30.4-10.1 37-.3 1.9-.8 4.6-1.1 6-.3 1.4-.8 4.5-1.1 7-.2 2.5-.6 5.2-.9 6-2.6 9.2-2.6 60 0 74 .3 1.4.7 4.2.9 6.2.2 2 .9 6.1 1.5 9 .6 2.9 1.2 6.4 1.5 7.8 3.8 22.2 19.5 63.1 32.7 84.8 2.2 3.5 3.9 6.6 3.9 6.8 0 1.4 18.1 27.1 25.9 36.7 10 12.4 33.8 36 47.6 47.2l11 9-.1 27.2c0 15 .2 27.4.5 27.4.3.1 22.1.2 48.4.3 38.3.1 47.7-.1 47.7-1.1 0-1.8.6-1.7 12.4 2.2 5.8 2 14.5 4.6 19.3 5.8l8.8 2.3.1 12.4c.1 6.9.2 13.1.3 13.7.1 1 10.4 1.3 48.1 1.3h48v-8c0-5.7.4-8 1.3-8.1.6 0 5.7-.2 11.1-.4 9.6-.4 19.2-1 26.6-1.9 1.9-.3 6.2-.7 9.5-1.1 3.3-.3 9.6-1.2 14-2s9.8-1.7 12-2.1c2.2-.3 5.8-1 8-1.6 2.2-.5 4.9-1.2 6-1.4 1.1-.2 3.4-.7 5-1.1 1.7-.4 3.4-.6 3.8-.5.5.2.6-.2.2-.8-.3-.6-.9-.8-1.3-.6-2.9 1.8-24.6 3.1-52.2 3.1-18.6 0-42.1-.8-43.6-1.5-.1 0-.2-3.1-.3-7l-.2-6.9 3.3.4c20.4 2.6 88.7 2.6 101.3 0 1.1-.2 4.7-.7 8-1 9.4-.9 25.2-3.5 35-5.7 5-1.1 10.1-2.2 11.5-2.4 1.4-.3 7.1-1.9 12.8-3.5 67.3-19.5 104.8-55.9 101.9-98.8-.7-10-1-11.4-3.8-20.1-9.8-30.4-39.5-62.5-82.4-89.2-11.6-7.2-19.6-11.5-16.9-9.1 1.2 1 7 5.6 13 10.3 29 22.9 51.2 50.8 59.3 74.7 4.8 14 5.8 27.6 3.1 41.1-4.8 23.4-27 47.6-57.9 63.1-14.2 7.2-41.6 17.2-53.3 19.5-1.3.2-6.1 1.4-10.8 2.5-4.7 1.1-10.1 2.3-12 2.6-1.9.3-6 1-9 1.5s-7.7 1.2-10.5 1.5c-2.7.3-5.9.8-7 1-1.1.2-4.5.7-7.5.9-3 .3-8.2.8-11.5 1.1-11.8 1.2-18.3 1.5-42.2 2l-24.3.6V176.5l-6.8-6.5c-7.7-7.4-18-17-33.7-31.7-6.1-5.6-13.3-12.3-16.1-15-8.5-8-28.9-27.1-34.1-31.8-2.6-2.5-5-4.5-5.3-4.5-.3 0-.5 126.9-.5 282z"/><path d="M404 229.6c-.2 139.8 0 373.8.4 374.1.3.4 41.3.5 87.1.3h9V307.9l-7.5-7c-4.1-3.9-13.1-12.3-19.9-18.7-6.8-6.5-14.1-13.3-16.1-15.2-4.4-4.1-14.4-13.6-34-32-7.9-7.4-15.4-14.6-16.7-15.9l-2.3-2.4v12.9z"/></svg>