<?xml version="1.0" encoding="UTF-8" standalone="no"?><!DOCTYPE svg PUBLIC "-//W3C//DTD SVG 1.1//EN" "http://www.w3.org/Graphics/SVG/1.1/DTD/svg11.dtd"><svg width="100%" height="100%" viewBox="0 0 16 16" version="1.1" xmlns="http://www.w3.org/2000/svg" xmlns:xlink="http://www.w3.org/1999/xlink" xml:space="preserve" xmlns:serif="http://www.serif.com/" style="fill-rule:evenodd;clip-rule:evenodd;stroke-linejoin:round;stroke-miterlimit:1.41421;"><g id="round"><path d="M16,2.8c0,-0.212 -0.084,-0.416 -0.234,-0.566c-0.15,-0.15 -0.354,-0.234 -0.566,-0.234c-2.731,0 -11.669,0 -14.4,0c-0.212,0 -0.416,0.084 -0.566,0.234c-0.15,0.15 -0.234,0.354 -0.234,0.566c0,1.167 0,3.2 0,3.2l16,0c0,0 0,-2.033 0,-3.2Z"/><rect x="0" y="6" width="16" height="4" style="fill:#ce3332;"/><path d="M16,10l-16,0c0,0 0,2.033 0,3.2c0,0.212 0.084,0.416 0.234,0.566c0.15,0.15 0.354,0.234 0.566,0.234c2.731,0 11.669,0 14.4,0c0.212,0 0.416,-0.084 0.566,-0.234c0.15,-0.15 0.234,-0.354 0.234,-0.566c0,-1.167 0,-3.2 0,-3.2Z" style="fill:#ffe00f;"/></g></svg>