<?xml version="1.0" encoding="UTF-8" standalone="no"?><!DOCTYPE svg PUBLIC "-//W3C//DTD SVG 1.1//EN" "http://www.w3.org/Graphics/SVG/1.1/DTD/svg11.dtd"><svg width="100%" height="100%" viewBox="0 0 16 16" version="1.1" xmlns="http://www.w3.org/2000/svg" xmlns:xlink="http://www.w3.org/1999/xlink" xml:space="preserve" xmlns:serif="http://www.serif.com/" style="fill-rule:evenodd;clip-rule:evenodd;stroke-linejoin:round;stroke-miterlimit:1.41421;"><g id="round"><rect x="0" y="11.23" width="16" height="0.923" style="fill:#c2002e;"/><rect x="0" y="12.154" width="16" height="0.923" style="fill:#fff;"/><path d="M16,13.077l-16,0c0,0 0,0.048 0,0.123c0,0.212 0.084,0.415 0.234,0.566c0.15,0.149 0.354,0.234 0.566,0.234c2.731,0 11.669,0 14.4,0c0.212,0 0.416,-0.085 0.566,-0.234c0.15,-0.151 0.234,-0.354 0.234,-0.566c0,-0.075 0,-0.123 0,-0.123Z" style="fill:#c2002e;"/><rect x="0" y="10.307" width="16" height="0.923" style="fill:#fff;"/><rect x="0" y="9.385" width="16" height="0.923" style="fill:#c2002e;"/><rect x="0" y="8.462" width="16" height="0.923" style="fill:#fff;"/><rect x="0" y="7.538" width="16" height="0.923" style="fill:#c2002e;"/><rect x="0" y="6.615" width="16" height="0.923" style="fill:#fff;"/><rect x="0" y="5.692" width="16" height="0.923" style="fill:#c2002e;"/><rect x="0" y="4.77" width="16" height="0.923" style="fill:#fff;"/><rect x="0" y="3.846" width="16" height="0.923" style="fill:#c2002e;"/><rect x="0" y="2.923" width="16" height="0.923" style="fill:#fff;"/><path d="M16,2.8c0,-0.212 -0.084,-0.415 -0.234,-0.566c-0.15,-0.149 -0.354,-0.234 -0.566,-0.234c-2.731,0 -11.669,0 -14.4,0c-0.212,0 -0.416,0.085 -0.566,0.234c-0.15,0.151 -0.234,0.354 -0.234,0.566c0,0.075 0,0.123 0,0.123l16,0c0,0 0,-0.048 0,-0.123Z" style="fill:#c2002e;"/><path d="M6.4,2c0,0 -3.883,0 -5.6,0c-0.212,0 -0.416,0.085 -0.566,0.234c-0.15,0.151 -0.234,0.354 -0.234,0.566c0,1.73 0,5.662 0,5.662l6.4,0l0,-6.462Z" style="fill:#3d3a72;"/><g><g><path d="M5.922,6.299l0.072,0.222l0.232,0l-0.188,0.137l0.072,0.22l-0.188,-0.136l-0.188,0.136l0.072,-0.22l-0.188,-0.137l0.232,0l0.072,-0.222Z" style="fill:#fff;"/><path d="M4.833,6.299l0.072,0.222l0.233,0l-0.188,0.137l0.071,0.22l-0.188,-0.136l-0.188,0.136l0.072,-0.22l-0.188,-0.137l0.232,0l0.072,-0.222Z" style="fill:#fff;"/><path d="M3.744,6.299l0.072,0.222l0.233,0l-0.188,0.137l0.072,0.22l-0.189,-0.136l-0.188,0.136l0.072,-0.22l-0.188,-0.137l0.233,0l0.071,-0.222Z" style="fill:#fff;"/><path d="M2.656,6.299l0.071,0.222l0.233,0l-0.188,0.137l0.072,0.22l-0.188,-0.136l-0.189,0.136l0.072,-0.22l-0.188,-0.137l0.233,0l0.072,-0.222Z" style="fill:#fff;"/><path d="M1.567,6.299l0.072,0.222l0.232,0l-0.188,0.137l0.072,0.22l-0.188,-0.136l-0.188,0.136l0.071,-0.22l-0.188,-0.137l0.233,0l0.072,-0.222Z" style="fill:#fff;"/><path d="M0.478,6.299l0.072,0.222l0.232,0l-0.188,0.137l0.072,0.22l-0.188,-0.136l-0.188,0.136l0.072,-0.22l-0.188,-0.137l0.232,0l0.072,-0.222Z" style="fill:#fff;"/></g><g><path d="M5.922,7.658l0.072,0.22l0.232,0l-0.188,0.137l0.072,0.221l-0.188,-0.137l-0.188,0.137l0.072,-0.221l-0.188,-0.137l0.232,0l0.072,-0.22Z" style="fill:#fff;"/><path d="M4.833,7.658l0.072,0.22l0.233,0l-0.188,0.137l0.071,0.221l-0.188,-0.137l-0.188,0.137l0.072,-0.221l-0.188,-0.137l0.232,0l0.072,-0.22Z" style="fill:#fff;"/><path d="M3.744,7.658l0.072,0.22l0.233,0l-0.188,0.137l0.072,0.221l-0.189,-0.137l-0.188,0.137l0.072,-0.221l-0.188,-0.137l0.233,0l0.071,-0.22Z" style="fill:#fff;"/><path d="M2.656,7.658l0.071,0.22l0.233,0l-0.188,0.137l0.072,0.221l-0.188,-0.137l-0.189,0.137l0.072,-0.221l-0.188,-0.137l0.233,0l0.072,-0.22Z" style="fill:#fff;"/><path d="M1.567,7.658l0.072,0.22l0.232,0l-0.188,0.137l0.072,0.221l-0.188,-0.137l-0.188,0.137l0.071,-0.221l-0.188,-0.137l0.233,0l0.072,-0.22Z" style="fill:#fff;"/><path d="M0.478,7.658l0.072,0.22l0.232,0l-0.188,0.137l0.072,0.221l-0.188,-0.137l-0.188,0.137l0.072,-0.221l-0.188,-0.137l0.232,0l0.072,-0.22Z" style="fill:#fff;"/></g><g><path d="M5.922,4.942l0.072,0.22l0.232,0l-0.188,0.137l0.072,0.222l-0.188,-0.137l-0.188,0.137l0.072,-0.222l-0.188,-0.137l0.232,0l0.072,-0.22Z" style="fill:#fff;"/><path d="M4.833,4.942l0.072,0.22l0.233,0l-0.188,0.137l0.071,0.222l-0.188,-0.137l-0.188,0.137l0.072,-0.222l-0.188,-0.137l0.232,0l0.072,-0.22Z" style="fill:#fff;"/><path d="M3.744,4.942l0.072,0.22l0.233,0l-0.188,0.137l0.072,0.222l-0.189,-0.137l-0.188,0.137l0.072,-0.222l-0.188,-0.137l0.233,0l0.071,-0.22Z" style="fill:#fff;"/><path d="M2.656,4.942l0.071,0.22l0.233,0l-0.188,0.137l0.072,0.222l-0.188,-0.137l-0.189,0.137l0.072,-0.222l-0.188,-0.137l0.233,0l0.072,-0.22Z" style="fill:#fff;"/><path d="M1.567,4.942l0.072,0.22l0.232,0l-0.188,0.137l0.072,0.222l-0.188,-0.137l-0.188,0.137l0.071,-0.222l-0.188,-0.137l0.233,0l0.072,-0.22Z" style="fill:#fff;"/><path d="M0.478,4.942l0.072,0.22l0.232,0l-0.188,0.137l0.072,0.222l-0.188,-0.137l-0.188,0.137l0.072,-0.222l-0.188,-0.137l0.232,0l0.072,-0.22Z" style="fill:#fff;"/></g><g><path d="M5.922,3.584l0.072,0.221l0.232,0l-0.188,0.137l0.072,0.22l-0.188,-0.136l-0.188,0.136l0.072,-0.22l-0.188,-0.137l0.232,0l0.072,-0.221Z" style="fill:#fff;"/><path d="M4.833,3.584l0.072,0.221l0.233,0l-0.188,0.137l0.071,0.22l-0.188,-0.136l-0.188,0.136l0.072,-0.22l-0.188,-0.137l0.232,0l0.072,-0.221Z" style="fill:#fff;"/><path d="M3.744,3.584l0.072,0.221l0.233,0l-0.188,0.137l0.072,0.22l-0.189,-0.136l-0.188,0.136l0.072,-0.22l-0.188,-0.137l0.233,0l0.071,-0.221Z" style="fill:#fff;"/><path d="M2.656,3.584l0.071,0.221l0.233,0l-0.188,0.137l0.072,0.22l-0.188,-0.136l-0.189,0.136l0.072,-0.22l-0.188,-0.137l0.233,0l0.072,-0.221Z" style="fill:#fff;"/><path d="M1.567,3.584l0.072,0.221l0.232,0l-0.188,0.137l0.072,0.22l-0.188,-0.136l-0.188,0.136l0.071,-0.22l-0.188,-0.137l0.233,0l0.072,-0.221Z" style="fill:#fff;"/><path d="M0.478,3.584l0.072,0.221l0.232,0l-0.188,0.137l0.072,0.22l-0.188,-0.136l-0.188,0.136l0.072,-0.22l-0.188,-0.137l0.232,0l0.072,-0.221Z" style="fill:#fff;"/></g><g><path d="M5.378,2.905l0.071,0.221l0.233,0l-0.188,0.136l0.072,0.222l-0.188,-0.137l-0.188,0.137l0.071,-0.222l-0.188,-0.136l0.233,0l0.072,-0.221Z" style="fill:#fff;"/><path d="M4.289,2.905l0.072,0.221l0.232,0l-0.188,0.136l0.072,0.222l-0.188,-0.137l-0.188,0.137l0.072,-0.222l-0.189,-0.136l0.233,0l0.072,-0.221Z" style="fill:#fff;"/><path d="M3.2,2.905l0.072,0.221l0.232,0l-0.188,0.136l0.072,0.222l-0.188,-0.137l-0.188,0.137l0.072,-0.222l-0.188,-0.136l0.232,0l0.072,-0.221Z" style="fill:#fff;"/><path d="M2.111,2.905l0.072,0.221l0.233,0l-0.189,0.136l0.072,0.222l-0.188,-0.137l-0.188,0.137l0.072,-0.222l-0.188,-0.136l0.232,0l0.072,-0.221Z" style="fill:#fff;"/><path d="M1.022,2.905l0.072,0.221l0.233,0l-0.188,0.136l0.071,0.222l-0.188,-0.137l-0.188,0.137l0.072,-0.222l-0.188,-0.136l0.233,0l0.071,-0.221Z" style="fill:#fff;"/></g><g><path d="M5.378,4.262l0.071,0.222l0.233,0l-0.188,0.137l0.072,0.221l-0.188,-0.137l-0.188,0.137l0.071,-0.221l-0.188,-0.137l0.233,0l0.072,-0.222Z" style="fill:#fff;"/><path d="M4.289,4.262l0.072,0.222l0.232,0l-0.188,0.137l0.072,0.221l-0.188,-0.137l-0.188,0.137l0.072,-0.221l-0.189,-0.137l0.233,0l0.072,-0.222Z" style="fill:#fff;"/><path d="M3.2,4.262l0.072,0.222l0.232,0l-0.188,0.137l0.072,0.221l-0.188,-0.137l-0.188,0.137l0.072,-0.221l-0.188,-0.137l0.232,0l0.072,-0.222Z" style="fill:#fff;"/><path d="M2.111,4.262l0.072,0.222l0.233,0l-0.189,0.137l0.072,0.221l-0.188,-0.137l-0.188,0.137l0.072,-0.221l-0.188,-0.137l0.232,0l0.072,-0.222Z" style="fill:#fff;"/><path d="M1.022,4.262l0.072,0.222l0.233,0l-0.188,0.137l0.071,0.221l-0.188,-0.137l-0.188,0.137l0.072,-0.221l-0.188,-0.137l0.233,0l0.071,-0.222Z" style="fill:#fff;"/></g><g><path d="M5.378,5.621l0.071,0.221l0.233,0l-0.188,0.136l0.072,0.221l-0.188,-0.137l-0.188,0.137l0.071,-0.221l-0.188,-0.136l0.233,0l0.072,-0.221Z" style="fill:#fff;"/><path d="M4.289,5.621l0.072,0.221l0.232,0l-0.188,0.136l0.072,0.221l-0.188,-0.137l-0.188,0.137l0.072,-0.221l-0.189,-0.136l0.233,0l0.072,-0.221Z" style="fill:#fff;"/><path d="M3.2,5.621l0.072,0.221l0.232,0l-0.188,0.136l0.072,0.221l-0.188,-0.137l-0.188,0.137l0.072,-0.221l-0.188,-0.136l0.232,0l0.072,-0.221Z" style="fill:#fff;"/><path d="M2.111,5.621l0.072,0.221l0.233,0l-0.189,0.136l0.072,0.221l-0.188,-0.137l-0.188,0.137l0.072,-0.221l-0.188,-0.136l0.232,0l0.072,-0.221Z" style="fill:#fff;"/><path d="M1.022,5.621l0.072,0.221l0.233,0l-0.188,0.136l0.071,0.221l-0.188,-0.137l-0.188,0.137l0.072,-0.221l-0.188,-0.136l0.233,0l0.071,-0.221Z" style="fill:#fff;"/></g><g><path d="M5.378,6.978l0.071,0.221l0.233,0l-0.188,0.137l0.072,0.222l-0.188,-0.137l-0.188,0.137l0.071,-0.222l-0.188,-0.137l0.233,0l0.072,-0.221Z" style="fill:#fff;"/><path d="M4.289,6.978l0.072,0.221l0.232,0l-0.188,0.137l0.072,0.222l-0.188,-0.137l-0.188,0.137l0.072,-0.222l-0.189,-0.137l0.233,0l0.072,-0.221Z" style="fill:#fff;"/><path d="M3.2,6.978l0.072,0.221l0.232,0l-0.188,0.137l0.072,0.222l-0.188,-0.137l-0.188,0.137l0.072,-0.222l-0.188,-0.137l0.232,0l0.072,-0.221Z" style="fill:#fff;"/><path d="M2.111,6.978l0.072,0.221l0.233,0l-0.189,0.137l0.072,0.222l-0.188,-0.137l-0.188,0.137l0.072,-0.222l-0.188,-0.137l0.232,0l0.072,-0.221Z" style="fill:#fff;"/><path d="M1.022,6.978l0.072,0.221l0.233,0l-0.188,0.137l0.071,0.222l-0.188,-0.137l-0.188,0.137l0.072,-0.222l-0.188,-0.137l0.233,0l0.071,-0.221Z" style="fill:#fff;"/></g><g><path d="M5.922,2.226l0.072,0.221l0.232,0l-0.188,0.137l0.072,0.221l-0.188,-0.137l-0.188,0.137l0.072,-0.221l-0.188,-0.137l0.232,0l0.072,-0.221Z" style="fill:#fff;"/><path d="M4.833,2.226l0.072,0.221l0.233,0l-0.188,0.137l0.071,0.221l-0.188,-0.137l-0.188,0.137l0.072,-0.221l-0.188,-0.137l0.232,0l0.072,-0.221Z" style="fill:#fff;"/><path d="M3.744,2.226l0.072,0.221l0.233,0l-0.188,0.137l0.072,0.221l-0.189,-0.137l-0.188,0.137l0.072,-0.221l-0.188,-0.137l0.233,0l0.071,-0.221Z" style="fill:#fff;"/><path d="M2.656,2.226l0.071,0.221l0.233,0l-0.188,0.137l0.072,0.221l-0.188,-0.137l-0.189,0.137l0.072,-0.221l-0.188,-0.137l0.233,0l0.072,-0.221Z" style="fill:#fff;"/><path d="M1.567,2.226l0.072,0.221l0.232,0l-0.188,0.137l0.072,0.221l-0.188,-0.137l-0.188,0.137l0.071,-0.221l-0.188,-0.137l0.233,0l0.072,-0.221Z" style="fill:#fff;"/><path d="M0.478,2.226l0.072,0.221l0.232,0l-0.188,0.137l0.072,0.221l-0.188,-0.137l-0.188,0.137l0.072,-0.221l-0.188,-0.137l0.232,0l0.072,-0.221Z" style="fill:#fff;"/></g></g></g></svg>