<?xml version="1.0" encoding="UTF-8" standalone="no"?><!DOCTYPE svg PUBLIC "-//W3C//DTD SVG 1.1//EN" "http://www.w3.org/Graphics/SVG/1.1/DTD/svg11.dtd"><svg width="100%" height="100%" viewBox="0 0 17 20" version="1.1" xmlns="http://www.w3.org/2000/svg" xmlns:xlink="http://www.w3.org/1999/xlink" xml:space="preserve" xmlns:serif="http://www.serif.com/" style="fill-rule:evenodd;clip-rule:evenodd;stroke-linejoin:round;stroke-miterlimit:1.41421;"><path id="Icon" d="M15.417,20l-14.167,0c-0.69,0 -1.25,-0.56 -1.25,-1.25l0,-10c0,-0.69 0.56,-1.25 1.25,-1.25l2.083,0l0,-2.5c0,-2.761 2.239,-5 5,-5c2.762,0 5,2.239 5,5l0,2.5l2.084,0c0.69,0 1.25,0.56 1.25,1.25l0,10c0,0.69 -0.56,1.25 -1.25,1.25Zm-8.334,-3.333l2.5,0l-0.653,-2.615c0.625,-0.24 1.07,-0.842 1.07,-1.551c0,-0.921 -0.746,-1.667 -1.667,-1.667c-0.92,0 -1.666,0.746 -1.666,1.667c0,0.709 0.445,1.311 1.07,1.551l-0.654,2.615Zm4.584,-11.667c0,-1.841 -1.493,-3.333 -3.334,-3.333c-1.841,0 -3.333,1.492 -3.333,3.333l0,2.5l6.667,0l0,-2.5Z"/></svg>