<?xml version="1.0" encoding="UTF-8" standalone="no"?><!DOCTYPE svg PUBLIC "-//W3C//DTD SVG 1.1//EN" "http://www.w3.org/Graphics/SVG/1.1/DTD/svg11.dtd"><svg width="100%" height="100%" viewBox="0 0 12 13" version="1.1" xmlns="http://www.w3.org/2000/svg" xmlns:xlink="http://www.w3.org/1999/xlink" xml:space="preserve" xmlns:serif="http://www.serif.com/" style="fill-rule:evenodd;clip-rule:evenodd;stroke-linejoin:round;stroke-miterlimit:1.41421;"><path d="M11,6c0.552,0 1,0.448 1,1l0,5c0,0.552 -0.448,1 -1,1l-10,0c-0.552,0 -1,-0.448 -1,-1l0,-5c0,-0.552 0.448,-1 1,-1c0,0 10,0 10,0Zm-9,-2c0,-2.208 1.792,-4 4,-4c2.208,0 4,1.792 4,4l0,2l-2,0l0,-2c0,-1.104 -0.896,-2 -2,-2c-1.1,0 -1.993,0.889 -2,1.987l0,0.013l0,2l-2,0l0,-2Z"/></svg>