<?xml version="1.0" encoding="UTF-8" standalone="no"?><!DOCTYPE svg PUBLIC "-//W3C//DTD SVG 1.1//EN" "http://www.w3.org/Graphics/SVG/1.1/DTD/svg11.dtd"><svg width="100%" height="100%" viewBox="0 0 20 20" version="1.1" xmlns="http://www.w3.org/2000/svg" xmlns:xlink="http://www.w3.org/1999/xlink" xml:space="preserve" xmlns:serif="http://www.serif.com/" style="fill-rule:evenodd;clip-rule:evenodd;stroke-linejoin:round;stroke-miterlimit:1.41421;"><path id="Icon" d="M16.67,19.679c-1.515,0.253 -3.296,0.32 -6.67,0.32c-3.374,0 -5.155,-0.067 -6.67,-0.32c-2.121,-0.353 -3.33,-1.109 -3.33,-2.38c0,-1.678 2.16,-4.019 5.163,-5.374c1.214,1.84 2.927,3.074 4.837,3.074c1.909,0 3.623,-1.234 4.837,-3.074c3.003,1.355 5.163,3.696 5.163,5.374c0,1.271 -1.209,2.027 -3.33,2.38Zm-6.67,-6.346c-2.768,0 -5,-3.675 -5,-7.451c0,-3.515 2.087,-5.882 5,-5.882c2.913,0 5,2.367 5,5.882c0,3.776 -2.232,7.451 -5,7.451Z"/></svg>