<?xml version="1.0" encoding="UTF-8" standalone="no"?><!DOCTYPE svg PUBLIC "-//W3C//DTD SVG 1.1//EN" "http://www.w3.org/Graphics/SVG/1.1/DTD/svg11.dtd"><svg width="100%" height="100%" viewBox="0 0 10 12" version="1.1" xmlns="http://www.w3.org/2000/svg" xmlns:xlink="http://www.w3.org/1999/xlink" xml:space="preserve" xmlns:serif="http://www.serif.com/" style="fill-rule:evenodd;clip-rule:evenodd;stroke-linejoin:round;stroke-miterlimit:1.41421;"><g id="thick"><circle cx="5" cy="3.143" r="2.5"/><path d="M6.991,5.893c0.348,-0.003 0.689,0.177 0.875,0.5l1.998,3.461c0.086,0.148 0.136,0.32 0.136,0.503c0,0.552 -0.448,1 -1,1l-8,0c-0.552,0 -1,-0.448 -1,-1c0,-0.184 0.05,-0.356 0.136,-0.504l1.998,-3.46c0.187,-0.324 0.527,-0.503 0.876,-0.5l0.491,0c0.417,0.314 0.937,0.5 1.499,0.5c0.562,0 1.082,-0.186 1.499,-0.5l0.492,0Z"/></g></svg>