<?xml version="1.0" standalone="no"?>
<!DOCTYPE svg PUBLIC "-//W3C//DTD SVG 20010904//EN"
 "http://www.w3.org/TR/2001/REC-SVG-20010904/DTD/svg10.dtd">
<svg version="1.0" xmlns="http://www.w3.org/2000/svg"
 width="700.000000pt" height="700.000000pt" viewBox="0 0 700.000000 700.000000"
 preserveAspectRatio="xMidYMid meet">
<metadata>
Created by potrace 1.11, written by Peter Selinger 2001-2013
</metadata>
<g transform="translate(0.000000,700.000000) scale(0.100000,-0.100000)"
fill="#000000" stroke="none">
<path d="M3225 6985 c-252 -47 -477 -148 -657 -294 -40 -33 -566 -554 -1169
-1158 -1181 -1183 -1149 -1148 -1253 -1359 -57 -116 -89 -207 -118 -335 -20
-90 -23 -131 -23 -304 0 -157 4 -218 19 -285 42 -193 129 -392 243 -554 43
-60 340 -364 1168 -1192 1040 -1041 1117 -1116 1217 -1182 176 -117 348 -187
553 -228 135 -27 405 -25 542 4 189 41 355 111 523 220 73 47 249 220 1221
1191 971 972 1144 1148 1191 1221 109 168 179 334 220 523 29 137 31 407 4
542 -41 205 -111 377 -228 553 -66 100 -141 177 -1182 1217 -828 828 -1132
1125 -1192 1168 -158 111 -343 194 -534 239 -116 27 -429 34 -545 13z m408
-290 c185 -28 371 -106 517 -217 42 -32 554 -537 1165 -1150 998 -1001 1095
-1100 1144 -1182 61 -98 110 -213 143 -333 19 -67 22 -105 22 -273 0 -180 -2
-202 -26 -293 -32 -118 -98 -259 -169 -364 -76 -113 -2199 -2236 -2312 -2312
-105 -71 -246 -137 -364 -169 -91 -24 -113 -26 -293 -26 -168 0 -206 3 -273
22 -120 33 -235 82 -333 143 -82 49 -181 146 -1182 1144 -649 647 -1118 1122
-1153 1169 -166 218 -249 516 -221 789 23 229 92 406 230 592 59 78 2159 2178
2237 2237 261 194 557 270 868 223z"/>
<path d="M1712 3538 l3 -1203 710 0 710 0 3 128 3 127 -541 0 -540 0 0 435 0
435 420 0 420 0 0 130 0 130 -420 0 -420 0 0 380 0 380 505 0 505 0 0 130 0
130 -680 0 -680 0 2 -1202z"/>
<path d="M3280 4734 c0 -4 169 -273 375 -599 l376 -593 -391 -592 c-215 -325
-394 -598 -397 -606 -4 -12 21 -14 158 -14 l164 1 314 475 314 475 22 -33 c12
-18 149 -232 304 -475 l284 -443 203 0 c112 0 204 2 204 4 0 2 -174 278 -386
612 -213 335 -389 616 -391 625 -2 8 158 260 369 580 206 310 377 570 382 577
6 9 -28 12 -158 12 l-166 0 -297 -445 c-163 -245 -300 -445 -304 -445 -4 0
-135 200 -291 445 l-283 445 -202 0 c-112 0 -203 -3 -203 -6z"/>
</g>
</svg>
