<?xml version="1.0" encoding="UTF-8" standalone="no"?><!DOCTYPE svg PUBLIC "-//W3C//DTD SVG 1.1//EN" "http://www.w3.org/Graphics/SVG/1.1/DTD/svg11.dtd"><svg width="100%" height="100%" viewBox="0 0 61 61" version="1.1" xmlns="http://www.w3.org/2000/svg" xmlns:xlink="http://www.w3.org/1999/xlink" xml:space="preserve" xmlns:serif="http://www.serif.com/" style="fill-rule:evenodd;clip-rule:evenodd;stroke-linejoin:round;stroke-miterlimit:1.41421;"><g id="_50-" serif:id="50%"><path d="M14.974,40.653l0,-20.956l11.71,0l0,2.223l-8.736,0l0,6.726l7.32,0l0,2.194l-7.32,0l0,7.59l9.345,0l0,2.223l-12.319,0Z" style="fill-rule:nonzero;"/><path d="M28.214,40.653l6.952,-10.521l-6.612,-10.435l3.511,0l5.041,7.901l5.296,-7.901l2.804,0l-6.698,10.124l6.868,10.832l-3.512,0l-5.324,-8.312l-5.508,8.312l-2.818,0Z" style="fill-rule:nonzero;"/><path d="M30.325,0.001l0.15,0.003l0.15,0.004l0.15,0.006l0.15,0.008l0.149,0.01l0.15,0.012l0.149,0.013l0.15,0.015l0.149,0.017l0.149,0.019l0.149,0.021l0.148,0.022l0.149,0.024l0.148,0.026l0.148,0.028l0.148,0.029l0.147,0.031l0.147,0.033l0.147,0.035l0.146,0.037l0.146,0.038l0.145,0.041l0.146,0.042l0.144,0.043l0.145,0.046l0.144,0.047l0.143,0.049l0.143,0.051l0.142,0.053l0.142,0.054l0.142,0.057l0.14,0.058l0.141,0.06l0.139,0.061l0.139,0.064l0.139,0.065l0.137,0.067l0.137,0.069l0.137,0.07l0.136,0.073l0.135,0.074l0.134,0.076l0.133,0.077l0.133,0.08l0.132,0.081l0.131,0.083l0.131,0.085l0.129,0.087l0.129,0.088l0.128,0.09l0.126,0.092l0.126,0.094l0.126,0.096l0.124,0.097l0.123,0.099l0.122,0.101l0.121,0.103l0.12,0.104l0.12,0.107l0.118,0.108l0.117,0.11l0.116,0.111l0.115,0.114l17.677,17.677l0.114,0.115l0.111,0.116l0.11,0.117l0.108,0.118l0.107,0.119l0.104,0.121l0.103,0.121l0.101,0.122l0.099,0.123l0.097,0.124l0.096,0.125l0.094,0.126l0.092,0.127l0.09,0.128l0.088,0.129l0.087,0.129l0.085,0.131l0.083,0.131l0.081,0.132l0.08,0.132l0.077,0.134l0.076,0.134l0.074,0.135l0.073,0.136l0.07,0.136l0.069,0.137l0.067,0.138l0.065,0.139l0.064,0.139l0.061,0.139l0.06,0.14l0.058,0.141l0.056,0.142l0.055,0.142l0.053,0.142l0.051,0.143l0.049,0.143l0.047,0.144l0.046,0.144l0.043,0.145l0.042,0.145l0.041,0.146l0.038,0.146l0.037,0.146l0.034,0.147l0.033,0.147l0.032,0.147l0.029,0.148l0.028,0.148l0.026,0.148l0.024,0.148l0.022,0.149l0.021,0.149l0.019,0.149l0.017,0.149l0.015,0.149l0.013,0.15l0.012,0.15l0.01,0.149l0.008,0.15l0.006,0.15l0.004,0.15l0.003,0.15l0.001,0.15l-0.001,0.15l-0.003,0.15l-0.004,0.15l-0.006,0.15l-0.008,0.15l-0.01,0.149l-0.012,0.15l-0.013,0.149l-0.015,0.15l-0.017,0.149l-0.019,0.149l-0.021,0.149l-0.022,0.148l-0.024,0.149l-0.026,0.148l-0.028,0.148l-0.029,0.148l-0.032,0.147l-0.033,0.147l-0.034,0.147l-0.037,0.146l-0.038,0.146l-0.041,0.145l-0.042,0.146l-0.043,0.144l-0.046,0.145l-0.047,0.144l-0.049,0.143l-0.051,0.143l-0.053,0.142l-0.055,0.142l-0.056,0.142l-0.058,0.14l-0.06,0.141l-0.061,0.139l-0.064,0.139l-0.065,0.139l-0.067,0.137l-0.069,0.137l-0.07,0.137l-0.073,0.136l-0.074,0.135l-0.076,0.134l-0.077,0.133l-0.08,0.133l-0.081,0.132l-0.083,0.131l-0.085,0.131l-0.087,0.129l-0.088,0.129l-0.09,0.128l-0.092,0.126l-0.094,0.126l-0.096,0.126l-0.097,0.124l-0.099,0.123l-0.101,0.122l-0.103,0.121l-0.104,0.12l-0.107,0.12l-0.108,0.118l-0.11,0.117l-0.111,0.116l-0.114,0.115l-17.677,17.677l-0.115,0.114l-0.116,0.111l-0.117,0.11l-0.118,0.108l-0.12,0.107l-0.12,0.104l-0.121,0.103l-0.122,0.101l-0.123,0.099l-0.124,0.097l-0.126,0.096l-0.126,0.094l-0.126,0.092l-0.128,0.09l-0.129,0.088l-0.129,0.087l-0.131,0.085l-0.131,0.083l-0.132,0.081l-0.133,0.08l-0.133,0.077l-0.134,0.076l-0.135,0.074l-0.136,0.073l-0.137,0.07l-0.137,0.069l-0.137,0.067l-0.139,0.065l-0.139,0.064l-0.139,0.061l-0.141,0.06l-0.14,0.058l-0.142,0.056l-0.142,0.055l-0.142,0.053l-0.143,0.051l-0.143,0.049l-0.144,0.047l-0.145,0.046l-0.144,0.043l-0.146,0.042l-0.145,0.041l-0.146,0.038l-0.146,0.037l-0.147,0.034l-0.147,0.033l-0.147,0.032l-0.148,0.029l-0.148,0.028l-0.148,0.026l-0.149,0.024l-0.148,0.022l-0.149,0.021l-0.149,0.019l-0.149,0.017l-0.15,0.015l-0.149,0.013l-0.15,0.012l-0.149,0.01l-0.15,0.008l-0.15,0.006l-0.15,0.004l-0.15,0.003l-0.15,0.001l-0.15,-0.001l-0.15,-0.003l-0.15,-0.004l-0.15,-0.006l-0.15,-0.008l-0.149,-0.01l-0.15,-0.012l-0.15,-0.013l-0.149,-0.015l-0.149,-0.017l-0.149,-0.019l-0.149,-0.021l-0.149,-0.022l-0.148,-0.024l-0.148,-0.026l-0.148,-0.028l-0.148,-0.029l-0.147,-0.032l-0.147,-0.033l-0.147,-0.034l-0.146,-0.037l-0.146,-0.038l-0.146,-0.041l-0.145,-0.042l-0.145,-0.043l-0.144,-0.046l-0.144,-0.047l-0.143,-0.049l-0.143,-0.051l-0.142,-0.053l-0.142,-0.055l-0.142,-0.056l-0.141,-0.058l-0.14,-0.06l-0.139,-0.061l-0.139,-0.064l-0.139,-0.065l-0.138,-0.067l-0.137,-0.069l-0.136,-0.07l-0.136,-0.073l-0.135,-0.074l-0.134,-0.076l-0.134,-0.077l-0.132,-0.08l-0.132,-0.081l-0.131,-0.083l-0.131,-0.085l-0.129,-0.087l-0.129,-0.088l-0.128,-0.09l-0.127,-0.092l-0.126,-0.094l-0.125,-0.096l-0.124,-0.097l-0.123,-0.099l-0.122,-0.101l-0.121,-0.103l-0.121,-0.104l-0.119,-0.107l-0.118,-0.108l-0.117,-0.11l-0.116,-0.111l-0.115,-0.114l-17.677,-17.677l-0.114,-0.115l-0.111,-0.116l-0.11,-0.117l-0.108,-0.118l-0.107,-0.12l-0.104,-0.12l-0.103,-0.121l-0.101,-0.122l-0.099,-0.123l-0.097,-0.124l-0.096,-0.126l-0.094,-0.126l-0.092,-0.126l-0.09,-0.128l-0.088,-0.129l-0.087,-0.129l-0.085,-0.131l-0.083,-0.131l-0.081,-0.132l-0.08,-0.133l-0.077,-0.133l-0.076,-0.134l-0.074,-0.135l-0.073,-0.136l-0.07,-0.137l-0.069,-0.137l-0.067,-0.137l-0.065,-0.139l-0.064,-0.139l-0.061,-0.139l-0.06,-0.141l-0.058,-0.14l-0.057,-0.142l-0.054,-0.142l-0.053,-0.142l-0.051,-0.143l-0.049,-0.143l-0.047,-0.144l-0.046,-0.145l-0.043,-0.144l-0.042,-0.146l-0.041,-0.145l-0.038,-0.146l-0.037,-0.146l-0.035,-0.147l-0.033,-0.147l-0.031,-0.147l-0.029,-0.148l-0.028,-0.148l-0.026,-0.148l-0.024,-0.149l-0.022,-0.148l-0.021,-0.149l-0.019,-0.149l-0.017,-0.149l-0.015,-0.15l-0.013,-0.149l-0.012,-0.15l-0.01,-0.149l-0.008,-0.15l-0.006,-0.15l-0.004,-0.15l-0.003,-0.15l-0.001,-0.15l0.001,-0.15l0.003,-0.15l0.004,-0.15l0.006,-0.15l0.008,-0.15l0.01,-0.149l0.012,-0.15l0.013,-0.15l0.015,-0.149l0.017,-0.149l0.019,-0.149l0.021,-0.149l0.022,-0.149l0.024,-0.148l0.026,-0.148l0.028,-0.148l0.029,-0.148l0.031,-0.147l0.033,-0.147l0.035,-0.147l0.037,-0.146l0.038,-0.146l0.041,-0.146l0.042,-0.145l0.043,-0.145l0.046,-0.144l0.047,-0.144l0.049,-0.143l0.051,-0.143l0.053,-0.142l0.054,-0.142l0.057,-0.142l0.058,-0.141l0.06,-0.14l0.061,-0.139l0.064,-0.139l0.065,-0.139l0.067,-0.138l0.069,-0.137l0.07,-0.136l0.073,-0.136l0.074,-0.135l0.076,-0.134l0.077,-0.134l0.08,-0.132l0.081,-0.132l0.083,-0.131l0.085,-0.131l0.087,-0.129l0.088,-0.129l0.09,-0.128l0.092,-0.127l0.094,-0.126l0.096,-0.125l0.097,-0.124l0.099,-0.123l0.101,-0.122l0.103,-0.121l0.104,-0.121l0.107,-0.119l0.108,-0.118l0.11,-0.117l0.111,-0.116l0.114,-0.115l17.677,-17.677l0.115,-0.114l0.116,-0.111l0.117,-0.11l0.118,-0.108l0.119,-0.107l0.121,-0.104l0.121,-0.103l0.122,-0.101l0.123,-0.099l0.124,-0.097l0.125,-0.096l0.126,-0.094l0.127,-0.092l0.128,-0.09l0.129,-0.088l0.129,-0.087l0.131,-0.085l0.131,-0.083l0.132,-0.081l0.132,-0.08l0.134,-0.077l0.134,-0.076l0.135,-0.074l0.136,-0.073l0.136,-0.07l0.137,-0.069l0.138,-0.067l0.139,-0.065l0.139,-0.064l0.139,-0.061l0.14,-0.06l0.141,-0.058l0.142,-0.057l0.142,-0.054l0.142,-0.053l0.143,-0.051l0.143,-0.049l0.144,-0.047l0.144,-0.046l0.145,-0.043l0.145,-0.042l0.146,-0.041l0.146,-0.038l0.146,-0.037l0.147,-0.035l0.147,-0.033l0.147,-0.031l0.148,-0.029l0.148,-0.028l0.148,-0.026l0.148,-0.024l0.149,-0.022l0.149,-0.021l0.149,-0.019l0.149,-0.017l0.149,-0.015l0.15,-0.013l0.15,-0.012l0.149,-0.01l0.15,-0.008l0.15,-0.006l0.15,-0.004l0.15,-0.003l0.15,-0.001l0.15,0.001Zm-0.27,2.5l-0.121,0.002l-0.12,0.003l-0.12,0.005l-0.12,0.007l-0.12,0.008l-0.12,0.009l-0.119,0.011l-0.12,0.012l-0.12,0.014l-0.119,0.015l-0.119,0.016l-0.119,0.018l-0.119,0.019l-0.119,0.021l-0.118,0.022l-0.118,0.024l-0.118,0.025l-0.118,0.026l-0.117,0.028l-0.117,0.029l-0.117,0.031l-0.117,0.032l-0.116,0.034l-0.115,0.035l-0.116,0.036l-0.115,0.038l-0.115,0.039l-0.114,0.041l-0.113,0.042l-0.114,0.044l-0.113,0.045l-0.112,0.046l-0.112,0.048l-0.112,0.049l-0.111,0.051l-0.11,0.052l-0.11,0.053l-0.11,0.055l-0.109,0.057l-0.108,0.057l-0.108,0.059l-0.107,0.061l-0.106,0.062l-0.106,0.064l-0.106,0.065l-0.105,0.066l-0.104,0.068l-0.103,0.069l-0.103,0.07l-0.102,0.073l-0.101,0.073l-0.101,0.075l-0.1,0.077l-0.1,0.077l-0.098,0.08l-0.098,0.081l-0.097,0.082l-0.096,0.084l-0.096,0.085l-0.095,0.086l-0.094,0.089l-0.093,0.089l-0.098,0.097l-17.666,17.666l-0.097,0.098l-0.089,0.093l-0.089,0.094l-0.086,0.095l-0.085,0.096l-0.084,0.096l-0.082,0.097l-0.081,0.098l-0.08,0.098l-0.077,0.1l-0.077,0.1l-0.075,0.101l-0.073,0.101l-0.073,0.102l-0.07,0.103l-0.069,0.103l-0.068,0.104l-0.066,0.105l-0.065,0.106l-0.064,0.106l-0.062,0.106l-0.061,0.107l-0.059,0.108l-0.057,0.108l-0.057,0.109l-0.055,0.11l-0.053,0.11l-0.052,0.11l-0.051,0.111l-0.049,0.112l-0.048,0.112l-0.046,0.112l-0.045,0.113l-0.044,0.114l-0.042,0.113l-0.041,0.114l-0.039,0.115l-0.038,0.115l-0.036,0.116l-0.035,0.115l-0.034,0.116l-0.032,0.117l-0.031,0.117l-0.029,0.117l-0.028,0.117l-0.026,0.118l-0.025,0.118l-0.024,0.118l-0.022,0.118l-0.021,0.119l-0.019,0.119l-0.018,0.119l-0.016,0.119l-0.015,0.119l-0.014,0.12l-0.012,0.12l-0.011,0.119l-0.009,0.12l-0.008,0.12l-0.007,0.12l-0.005,0.12l-0.003,0.12l-0.002,0.121l-0.001,0.12l0.001,0.12l0.002,0.12l0.003,0.121l0.005,0.12l0.007,0.12l0.008,0.12l0.009,0.12l0.011,0.119l0.012,0.12l0.014,0.12l0.015,0.119l0.016,0.119l0.018,0.119l0.019,0.119l0.021,0.119l0.022,0.118l0.024,0.118l0.025,0.118l0.026,0.118l0.028,0.117l0.029,0.117l0.031,0.117l0.032,0.116l0.034,0.117l0.035,0.115l0.036,0.116l0.038,0.115l0.039,0.114l0.041,0.115l0.042,0.113l0.044,0.114l0.045,0.113l0.046,0.112l0.048,0.112l0.049,0.112l0.051,0.111l0.052,0.11l0.053,0.11l0.055,0.11l0.057,0.108l0.057,0.109l0.059,0.108l0.061,0.107l0.062,0.106l0.064,0.106l0.065,0.106l0.066,0.104l0.068,0.105l0.069,0.103l0.07,0.103l0.073,0.102l0.073,0.101l0.075,0.101l0.077,0.1l0.077,0.099l0.08,0.099l0.081,0.098l0.082,0.097l0.084,0.096l0.085,0.096l0.086,0.094l0.089,0.094l0.089,0.094l0.097,0.098l17.666,17.666l0.098,0.097l0.093,0.089l0.094,0.088l0.095,0.087l0.096,0.085l0.096,0.084l0.097,0.082l0.098,0.081l0.099,0.079l0.099,0.078l0.1,0.077l0.101,0.075l0.101,0.073l0.102,0.072l0.103,0.071l0.103,0.069l0.104,0.068l0.105,0.066l0.106,0.065l0.106,0.064l0.106,0.062l0.107,0.06l0.108,0.06l0.108,0.057l0.109,0.057l0.11,0.055l0.11,0.053l0.11,0.052l0.111,0.051l0.112,0.049l0.112,0.048l0.112,0.046l0.113,0.045l0.114,0.044l0.113,0.042l0.114,0.04l0.115,0.04l0.115,0.038l0.116,0.036l0.115,0.035l0.116,0.034l0.117,0.032l0.117,0.03l0.117,0.03l0.117,0.028l0.118,0.026l0.118,0.025l0.118,0.024l0.118,0.022l0.119,0.021l0.119,0.019l0.119,0.018l0.119,0.016l0.119,0.015l0.12,0.014l0.12,0.012l0.119,0.011l0.12,0.009l0.12,0.008l0.12,0.006l0.12,0.005l0.12,0.004l0.121,0.002l0.12,0.001l0.12,-0.001l0.12,-0.002l0.121,-0.004l0.12,-0.005l0.12,-0.006l0.12,-0.008l0.12,-0.009l0.119,-0.011l0.12,-0.012l0.12,-0.014l0.119,-0.015l0.119,-0.016l0.119,-0.018l0.119,-0.019l0.119,-0.021l0.118,-0.022l0.118,-0.024l0.118,-0.025l0.118,-0.026l0.117,-0.028l0.117,-0.03l0.117,-0.03l0.117,-0.032l0.116,-0.034l0.115,-0.035l0.116,-0.036l0.115,-0.038l0.114,-0.04l0.115,-0.04l0.113,-0.042l0.114,-0.044l0.113,-0.045l0.112,-0.046l0.112,-0.048l0.112,-0.049l0.111,-0.051l0.11,-0.052l0.11,-0.053l0.11,-0.055l0.108,-0.057l0.109,-0.057l0.108,-0.06l0.107,-0.06l0.106,-0.062l0.106,-0.064l0.106,-0.065l0.104,-0.066l0.105,-0.068l0.103,-0.069l0.103,-0.071l0.102,-0.072l0.101,-0.073l0.101,-0.075l0.1,-0.077l0.099,-0.078l0.099,-0.079l0.098,-0.081l0.097,-0.082l0.096,-0.084l0.096,-0.085l0.094,-0.087l0.094,-0.088l0.094,-0.089l0.098,-0.097l17.666,-17.666l0.097,-0.098l0.089,-0.094l0.088,-0.094l0.087,-0.094l0.085,-0.096l0.084,-0.096l0.082,-0.097l0.081,-0.098l0.079,-0.099l0.078,-0.099l0.077,-0.1l0.075,-0.101l0.073,-0.101l0.072,-0.102l0.071,-0.103l0.069,-0.103l0.068,-0.105l0.066,-0.104l0.065,-0.106l0.064,-0.106l0.062,-0.106l0.06,-0.107l0.06,-0.108l0.057,-0.109l0.057,-0.108l0.055,-0.11l0.053,-0.11l0.052,-0.11l0.051,-0.111l0.049,-0.112l0.048,-0.112l0.046,-0.112l0.045,-0.113l0.044,-0.114l0.042,-0.113l0.04,-0.115l0.04,-0.114l0.038,-0.115l0.036,-0.116l0.035,-0.115l0.034,-0.116l0.032,-0.117l0.03,-0.117l0.03,-0.117l0.028,-0.117l0.026,-0.118l0.025,-0.118l0.024,-0.118l0.022,-0.118l0.021,-0.119l0.019,-0.119l0.018,-0.119l0.016,-0.119l0.015,-0.119l0.014,-0.12l0.012,-0.12l0.011,-0.119l0.009,-0.12l0.008,-0.12l0.006,-0.12l0.005,-0.12l0.004,-0.121l0.002,-0.12l0.001,-0.12l-0.001,-0.12l-0.002,-0.121l-0.004,-0.12l-0.005,-0.12l-0.006,-0.12l-0.008,-0.12l-0.009,-0.12l-0.011,-0.119l-0.012,-0.12l-0.014,-0.12l-0.015,-0.119l-0.016,-0.119l-0.018,-0.119l-0.019,-0.119l-0.021,-0.119l-0.022,-0.118l-0.024,-0.118l-0.025,-0.118l-0.026,-0.118l-0.028,-0.117l-0.03,-0.117l-0.03,-0.117l-0.032,-0.117l-0.034,-0.116l-0.035,-0.115l-0.036,-0.116l-0.038,-0.115l-0.04,-0.115l-0.04,-0.114l-0.042,-0.113l-0.044,-0.114l-0.045,-0.113l-0.046,-0.112l-0.048,-0.112l-0.049,-0.112l-0.051,-0.111l-0.052,-0.11l-0.053,-0.11l-0.055,-0.11l-0.057,-0.109l-0.057,-0.108l-0.06,-0.108l-0.06,-0.107l-0.062,-0.106l-0.064,-0.106l-0.065,-0.106l-0.066,-0.105l-0.068,-0.104l-0.069,-0.103l-0.071,-0.103l-0.072,-0.102l-0.073,-0.101l-0.075,-0.101l-0.077,-0.1l-0.078,-0.099l-0.079,-0.099l-0.081,-0.098l-0.082,-0.097l-0.084,-0.096l-0.085,-0.096l-0.087,-0.095l-0.088,-0.094l-0.089,-0.093l-0.097,-0.098l-17.666,-17.666l-0.098,-0.097l-0.094,-0.089l-0.094,-0.089l-0.094,-0.086l-0.096,-0.085l-0.096,-0.084l-0.097,-0.082l-0.098,-0.081l-0.099,-0.08l-0.099,-0.077l-0.1,-0.077l-0.101,-0.075l-0.101,-0.073l-0.102,-0.073l-0.103,-0.07l-0.103,-0.069l-0.105,-0.068l-0.104,-0.066l-0.106,-0.065l-0.106,-0.064l-0.106,-0.062l-0.107,-0.061l-0.108,-0.059l-0.109,-0.057l-0.108,-0.057l-0.11,-0.055l-0.11,-0.053l-0.11,-0.052l-0.111,-0.051l-0.112,-0.049l-0.112,-0.048l-0.112,-0.046l-0.113,-0.045l-0.114,-0.044l-0.113,-0.042l-0.115,-0.041l-0.114,-0.039l-0.115,-0.038l-0.116,-0.036l-0.115,-0.035l-0.117,-0.034l-0.116,-0.032l-0.117,-0.031l-0.117,-0.029l-0.117,-0.028l-0.118,-0.026l-0.118,-0.025l-0.118,-0.024l-0.118,-0.022l-0.119,-0.021l-0.119,-0.019l-0.119,-0.018l-0.119,-0.016l-0.119,-0.015l-0.12,-0.014l-0.12,-0.012l-0.119,-0.011l-0.12,-0.009l-0.12,-0.008l-0.12,-0.007l-0.12,-0.005l-0.121,-0.003l-0.12,-0.002l-0.12,-0.001l-0.12,0.001Z"/></g></svg>