<?xml version="1.0" encoding="UTF-8" standalone="no"?><!DOCTYPE svg PUBLIC "-//W3C//DTD SVG 1.1//EN" "http://www.w3.org/Graphics/SVG/1.1/DTD/svg11.dtd"><svg width="100%" height="100%" viewBox="0 0 20 20" version="1.1" xmlns="http://www.w3.org/2000/svg" xmlns:xlink="http://www.w3.org/1999/xlink" xml:space="preserve" xmlns:serif="http://www.serif.com/" style="fill-rule:evenodd;clip-rule:evenodd;stroke-linejoin:round;stroke-miterlimit:1.41421;"><g id="Cross"><path d="M4.697,4.697c0.187,-0.188 0.442,-0.293 0.707,-0.293c0.265,0 0.519,0.105 0.707,0.293c1.928,1.928 7.264,7.264 9.192,9.192c0.188,0.188 0.293,0.442 0.293,0.707c0,0.265 -0.105,0.52 -0.293,0.707c-0.187,0.188 -0.442,0.293 -0.707,0.293c-0.265,0 -0.519,-0.105 -0.707,-0.293c-1.928,-1.928 -7.264,-7.264 -9.192,-9.192c-0.188,-0.188 -0.293,-0.442 -0.293,-0.707c0,-0.265 0.105,-0.52 0.293,-0.707c0,0 0,0 0,0Z"/><path d="M15.321,4.714c-0.192,-0.192 -0.453,-0.3 -0.725,-0.3c-0.272,0 -0.532,0.108 -0.725,0.3c-1.943,1.944 -7.252,7.252 -9.174,9.175c-0.188,0.188 -0.293,0.442 -0.293,0.707c0,0.265 0.105,0.52 0.293,0.707c0,0.001 0,0.001 0,0.001c0.391,0.39 1.023,0.39 1.413,0c1.934,-1.934 7.299,-7.298 9.212,-9.211c0.182,-0.183 0.285,-0.431 0.285,-0.689c0,-0.259 -0.103,-0.506 -0.285,-0.689c-0.001,0 -0.001,0 -0.001,-0.001Z"/></g></svg>