<?xml version="1.0" encoding="UTF-8" standalone="no"?><!DOCTYPE svg PUBLIC "-//W3C//DTD SVG 1.1//EN" "http://www.w3.org/Graphics/SVG/1.1/DTD/svg11.dtd"><svg width="100%" height="100%" viewBox="0 0 20 16" version="1.1" xmlns="http://www.w3.org/2000/svg" xmlns:xlink="http://www.w3.org/1999/xlink" xml:space="preserve" xmlns:serif="http://www.serif.com/" style="fill-rule:evenodd;clip-rule:evenodd;stroke-linejoin:round;stroke-miterlimit:1.41421;"><g><path d="M20,3.58c0,-0.531 -0.431,-0.962 -0.962,-0.962c-3.991,0 -19.038,0 -19.038,0c0,0 0,9.333 0,12.411c0,0.257 0.102,0.504 0.284,0.687c0.183,0.182 0.43,0.284 0.687,0.284c3.38,0 14.607,0 18.03,0c0.552,0 0.999,-0.447 0.999,-0.999c0,-2.494 0,-8.967 0,-11.421Z"/><ellipse cx="0.922" cy="0.929" rx="0.922" ry="0.929"/><path d="M4.306,0.272c0.36,-0.363 0.944,-0.363 1.304,0c0.36,0.363 0.36,0.951 0,1.314c-0.36,0.363 -0.944,0.363 -1.304,0c-0.36,-0.363 -0.36,-0.951 0,-1.314Z"/><rect x="0.922" y="0" width="4.036" height="1.858"/><path d="M8,2.68l-2.39,-2.408l-1.304,1.314l2.39,2.408l1.304,-1.314Z"/><rect x="0" y="0.929" width="6.153" height="1.751"/></g></svg>