<?xml version="1.0" encoding="UTF-8" standalone="no"?><!DOCTYPE svg PUBLIC "-//W3C//DTD SVG 1.1//EN" "http://www.w3.org/Graphics/SVG/1.1/DTD/svg11.dtd"><svg width="100%" height="100%" viewBox="0 0 20 20" version="1.1" xmlns="http://www.w3.org/2000/svg" xmlns:xlink="http://www.w3.org/1999/xlink" xml:space="preserve" xmlns:serif="http://www.serif.com/" style="fill-rule:evenodd;clip-rule:evenodd;stroke-linejoin:round;stroke-miterlimit:1.41421;"><g><rect x="0" y="14.038" width="20" height="1.154" style="fill:#c2002e;"/><rect x="0" y="15.192" width="20" height="1.154" style="fill:#fff;"/><rect x="0" y="16.346" width="20" height="1.154" style="fill:#c2002e;"/><rect x="0" y="12.884" width="20" height="1.154" style="fill:#fff;"/><rect x="0" y="11.731" width="20" height="1.154" style="fill:#c2002e;"/><rect x="0" y="10.577" width="20" height="1.154" style="fill:#fff;"/><rect x="0" y="9.423" width="20" height="1.154" style="fill:#c2002e;"/><rect x="0" y="8.269" width="20" height="1.154" style="fill:#fff;"/><rect x="0" y="7.115" width="20" height="1.154" style="fill:#c2002e;"/><rect x="0" y="5.962" width="20" height="1.154" style="fill:#fff;"/><rect x="0" y="4.808" width="20" height="1.154" style="fill:#c2002e;"/><rect x="0" y="3.654" width="20" height="1.154" style="fill:#fff;"/><rect x="0" y="2.5" width="20" height="1.154" style="fill:#c2002e;"/><rect x="0" y="2.5" width="8" height="8.077" style="fill:#3d3a72;"/><g><g><path d="M7.402,7.874l0.09,0.277l0.291,0l-0.236,0.171l0.09,0.276l-0.235,-0.171l-0.235,0.171l0.09,-0.276l-0.235,-0.171l0.29,0l0.09,-0.277Z" style="fill:#fff;"/><path d="M6.041,7.874l0.09,0.277l0.291,0l-0.235,0.171l0.089,0.276l-0.235,-0.171l-0.235,0.171l0.09,-0.276l-0.235,-0.171l0.29,0l0.09,-0.277Z" style="fill:#fff;"/><path d="M4.68,7.874l0.09,0.277l0.291,0l-0.235,0.171l0.09,0.276l-0.236,-0.171l-0.235,0.171l0.09,-0.276l-0.235,-0.171l0.291,0l0.089,-0.277Z" style="fill:#fff;"/><path d="M3.32,7.874l0.089,0.277l0.291,0l-0.235,0.171l0.09,0.276l-0.235,-0.171l-0.236,0.171l0.09,-0.276l-0.235,-0.171l0.291,0l0.09,-0.277Z" style="fill:#fff;"/><path d="M1.959,7.874l0.09,0.277l0.29,0l-0.235,0.171l0.09,0.276l-0.235,-0.171l-0.235,0.171l0.089,-0.276l-0.235,-0.171l0.291,0l0.09,-0.277Z" style="fill:#fff;"/><path d="M0.598,7.874l0.09,0.277l0.29,0l-0.235,0.171l0.09,0.276l-0.235,-0.171l-0.235,0.171l0.09,-0.276l-0.236,-0.171l0.291,0l0.09,-0.277Z" style="fill:#fff;"/></g><g><path d="M7.402,9.572l0.09,0.276l0.291,0l-0.236,0.171l0.09,0.276l-0.235,-0.171l-0.235,0.171l0.09,-0.276l-0.235,-0.171l0.29,0l0.09,-0.276Z" style="fill:#fff;"/><path d="M6.041,9.572l0.09,0.276l0.291,0l-0.235,0.171l0.089,0.276l-0.235,-0.171l-0.235,0.171l0.09,-0.276l-0.235,-0.171l0.29,0l0.09,-0.276Z" style="fill:#fff;"/><path d="M4.68,9.572l0.09,0.276l0.291,0l-0.235,0.171l0.09,0.276l-0.236,-0.171l-0.235,0.171l0.09,-0.276l-0.235,-0.171l0.291,0l0.089,-0.276Z" style="fill:#fff;"/><path d="M3.32,9.572l0.089,0.276l0.291,0l-0.235,0.171l0.09,0.276l-0.235,-0.171l-0.236,0.171l0.09,-0.276l-0.235,-0.171l0.291,0l0.09,-0.276Z" style="fill:#fff;"/><path d="M1.959,9.572l0.09,0.276l0.29,0l-0.235,0.171l0.09,0.276l-0.235,-0.171l-0.235,0.171l0.089,-0.276l-0.235,-0.171l0.291,0l0.09,-0.276Z" style="fill:#fff;"/><path d="M0.598,9.572l0.09,0.276l0.29,0l-0.235,0.171l0.09,0.276l-0.235,-0.171l-0.235,0.171l0.09,-0.276l-0.236,-0.171l0.291,0l0.09,-0.276Z" style="fill:#fff;"/></g><g><path d="M7.402,6.177l0.09,0.276l0.291,0l-0.236,0.171l0.09,0.277l-0.235,-0.171l-0.235,0.171l0.09,-0.277l-0.235,-0.171l0.29,0l0.09,-0.276Z" style="fill:#fff;"/><path d="M6.041,6.177l0.09,0.276l0.291,0l-0.235,0.171l0.089,0.277l-0.235,-0.171l-0.235,0.171l0.09,-0.277l-0.235,-0.171l0.29,0l0.09,-0.276Z" style="fill:#fff;"/><path d="M4.68,6.177l0.09,0.276l0.291,0l-0.235,0.171l0.09,0.277l-0.236,-0.171l-0.235,0.171l0.09,-0.277l-0.235,-0.171l0.291,0l0.089,-0.276Z" style="fill:#fff;"/><path d="M3.32,6.177l0.089,0.276l0.291,0l-0.235,0.171l0.09,0.277l-0.235,-0.171l-0.236,0.171l0.09,-0.277l-0.235,-0.171l0.291,0l0.09,-0.276Z" style="fill:#fff;"/><path d="M1.959,6.177l0.09,0.276l0.29,0l-0.235,0.171l0.09,0.277l-0.235,-0.171l-0.235,0.171l0.089,-0.277l-0.235,-0.171l0.291,0l0.09,-0.276Z" style="fill:#fff;"/><path d="M0.598,6.177l0.09,0.276l0.29,0l-0.235,0.171l0.09,0.277l-0.235,-0.171l-0.235,0.171l0.09,-0.277l-0.236,-0.171l0.291,0l0.09,-0.276Z" style="fill:#fff;"/></g><g><path d="M7.402,4.48l0.09,0.276l0.291,0l-0.236,0.171l0.09,0.276l-0.235,-0.17l-0.235,0.17l0.09,-0.276l-0.235,-0.171l0.29,0l0.09,-0.276Z" style="fill:#fff;"/><path d="M6.041,4.48l0.09,0.276l0.291,0l-0.235,0.171l0.089,0.276l-0.235,-0.17l-0.235,0.17l0.09,-0.276l-0.235,-0.171l0.29,0l0.09,-0.276Z" style="fill:#fff;"/><path d="M4.68,4.48l0.09,0.276l0.291,0l-0.235,0.171l0.09,0.276l-0.236,-0.17l-0.235,0.17l0.09,-0.276l-0.235,-0.171l0.291,0l0.089,-0.276Z" style="fill:#fff;"/><path d="M3.32,4.48l0.089,0.276l0.291,0l-0.235,0.171l0.09,0.276l-0.235,-0.17l-0.236,0.17l0.09,-0.276l-0.235,-0.171l0.291,0l0.09,-0.276Z" style="fill:#fff;"/><path d="M1.959,4.48l0.09,0.276l0.29,0l-0.235,0.171l0.09,0.276l-0.235,-0.17l-0.235,0.17l0.089,-0.276l-0.235,-0.171l0.291,0l0.09,-0.276Z" style="fill:#fff;"/><path d="M0.598,4.48l0.09,0.276l0.29,0l-0.235,0.171l0.09,0.276l-0.235,-0.17l-0.235,0.17l0.09,-0.276l-0.236,-0.171l0.291,0l0.09,-0.276Z" style="fill:#fff;"/></g><g><path d="M6.722,3.631l0.089,0.277l0.291,0l-0.235,0.17l0.09,0.277l-0.235,-0.171l-0.235,0.171l0.089,-0.277l-0.235,-0.17l0.291,0l0.09,-0.277Z" style="fill:#fff;"/><path d="M5.361,3.631l0.09,0.277l0.29,0l-0.235,0.17l0.09,0.277l-0.235,-0.171l-0.235,0.171l0.09,-0.277l-0.236,-0.17l0.291,0l0.09,-0.277Z" style="fill:#fff;"/><path d="M4,3.631l0.09,0.277l0.29,0l-0.235,0.17l0.09,0.277l-0.235,-0.171l-0.235,0.171l0.09,-0.277l-0.235,-0.17l0.29,0l0.09,-0.277Z" style="fill:#fff;"/><path d="M2.639,3.631l0.09,0.277l0.291,0l-0.236,0.17l0.09,0.277l-0.235,-0.171l-0.235,0.171l0.09,-0.277l-0.235,-0.17l0.29,0l0.09,-0.277Z" style="fill:#fff;"/><path d="M1.278,3.631l0.09,0.277l0.291,0l-0.235,0.17l0.089,0.277l-0.235,-0.171l-0.235,0.171l0.09,-0.277l-0.235,-0.17l0.291,0l0.089,-0.277Z" style="fill:#fff;"/></g><g><path d="M6.722,5.328l0.089,0.277l0.291,0l-0.235,0.171l0.09,0.276l-0.235,-0.171l-0.235,0.171l0.089,-0.276l-0.235,-0.171l0.291,0l0.09,-0.277Z" style="fill:#fff;"/><path d="M5.361,5.328l0.09,0.277l0.29,0l-0.235,0.171l0.09,0.276l-0.235,-0.171l-0.235,0.171l0.09,-0.276l-0.236,-0.171l0.291,0l0.09,-0.277Z" style="fill:#fff;"/><path d="M4,5.328l0.09,0.277l0.29,0l-0.235,0.171l0.09,0.276l-0.235,-0.171l-0.235,0.171l0.09,-0.276l-0.235,-0.171l0.29,0l0.09,-0.277Z" style="fill:#fff;"/><path d="M2.639,5.328l0.09,0.277l0.291,0l-0.236,0.171l0.09,0.276l-0.235,-0.171l-0.235,0.171l0.09,-0.276l-0.235,-0.171l0.29,0l0.09,-0.277Z" style="fill:#fff;"/><path d="M1.278,5.328l0.09,0.277l0.291,0l-0.235,0.171l0.089,0.276l-0.235,-0.171l-0.235,0.171l0.09,-0.276l-0.235,-0.171l0.291,0l0.089,-0.277Z" style="fill:#fff;"/></g><g><path d="M6.722,7.026l0.089,0.276l0.291,0l-0.235,0.171l0.09,0.276l-0.235,-0.171l-0.235,0.171l0.089,-0.276l-0.235,-0.171l0.291,0l0.09,-0.276Z" style="fill:#fff;"/><path d="M5.361,7.026l0.09,0.276l0.29,0l-0.235,0.171l0.09,0.276l-0.235,-0.171l-0.235,0.171l0.09,-0.276l-0.236,-0.171l0.291,0l0.09,-0.276Z" style="fill:#fff;"/><path d="M4,7.026l0.09,0.276l0.29,0l-0.235,0.171l0.09,0.276l-0.235,-0.171l-0.235,0.171l0.09,-0.276l-0.235,-0.171l0.29,0l0.09,-0.276Z" style="fill:#fff;"/><path d="M2.639,7.026l0.09,0.276l0.291,0l-0.236,0.171l0.09,0.276l-0.235,-0.171l-0.235,0.171l0.09,-0.276l-0.235,-0.171l0.29,0l0.09,-0.276Z" style="fill:#fff;"/><path d="M1.278,7.026l0.09,0.276l0.291,0l-0.235,0.171l0.089,0.276l-0.235,-0.171l-0.235,0.171l0.09,-0.276l-0.235,-0.171l0.291,0l0.089,-0.276Z" style="fill:#fff;"/></g><g><path d="M6.722,8.723l0.089,0.276l0.291,0l-0.235,0.171l0.09,0.277l-0.235,-0.171l-0.235,0.171l0.089,-0.277l-0.235,-0.171l0.291,0l0.09,-0.276Z" style="fill:#fff;"/><path d="M5.361,8.723l0.09,0.276l0.29,0l-0.235,0.171l0.09,0.277l-0.235,-0.171l-0.235,0.171l0.09,-0.277l-0.236,-0.171l0.291,0l0.09,-0.276Z" style="fill:#fff;"/><path d="M4,8.723l0.09,0.276l0.29,0l-0.235,0.171l0.09,0.277l-0.235,-0.171l-0.235,0.171l0.09,-0.277l-0.235,-0.171l0.29,0l0.09,-0.276Z" style="fill:#fff;"/><path d="M2.639,8.723l0.09,0.276l0.291,0l-0.236,0.171l0.09,0.277l-0.235,-0.171l-0.235,0.171l0.09,-0.277l-0.235,-0.171l0.29,0l0.09,-0.276Z" style="fill:#fff;"/><path d="M1.278,8.723l0.09,0.276l0.291,0l-0.235,0.171l0.089,0.277l-0.235,-0.171l-0.235,0.171l0.09,-0.277l-0.235,-0.171l0.291,0l0.089,-0.276Z" style="fill:#fff;"/></g><g><path d="M7.402,2.783l0.09,0.276l0.291,0l-0.236,0.171l0.09,0.276l-0.235,-0.171l-0.235,0.171l0.09,-0.276l-0.235,-0.171l0.29,0l0.09,-0.276Z" style="fill:#fff;"/><path d="M6.041,2.783l0.09,0.276l0.291,0l-0.235,0.171l0.089,0.276l-0.235,-0.171l-0.235,0.171l0.09,-0.276l-0.235,-0.171l0.29,0l0.09,-0.276Z" style="fill:#fff;"/><path d="M4.68,2.783l0.09,0.276l0.291,0l-0.235,0.171l0.09,0.276l-0.236,-0.171l-0.235,0.171l0.09,-0.276l-0.235,-0.171l0.291,0l0.089,-0.276Z" style="fill:#fff;"/><path d="M3.32,2.783l0.089,0.276l0.291,0l-0.235,0.171l0.09,0.276l-0.235,-0.171l-0.236,0.171l0.09,-0.276l-0.235,-0.171l0.291,0l0.09,-0.276Z" style="fill:#fff;"/><path d="M1.959,2.783l0.09,0.276l0.29,0l-0.235,0.171l0.09,0.276l-0.235,-0.171l-0.235,0.171l0.089,-0.276l-0.235,-0.171l0.291,0l0.09,-0.276Z" style="fill:#fff;"/><path d="M0.598,2.783l0.09,0.276l0.29,0l-0.235,0.171l0.09,0.276l-0.235,-0.171l-0.235,0.171l0.09,-0.276l-0.236,-0.171l0.291,0l0.09,-0.276Z" style="fill:#fff;"/></g></g></g></svg>