<?xml version="1.0" encoding="UTF-8" standalone="no"?><!DOCTYPE svg PUBLIC "-//W3C//DTD SVG 1.1//EN" "http://www.w3.org/Graphics/SVG/1.1/DTD/svg11.dtd"><svg width="100%" height="100%" viewBox="0 0 20 20" version="1.1" xmlns="http://www.w3.org/2000/svg" xmlns:xlink="http://www.w3.org/1999/xlink" xml:space="preserve" xmlns:serif="http://www.serif.com/" style="fill-rule:evenodd;clip-rule:evenodd;stroke-linejoin:round;stroke-miterlimit:1.41421;"><path d="M9.197,0.343c0.006,-0.006 0.012,-0.012 0.019,-0.018c0.432,-0.433 1.135,-0.433 1.568,0l0,0l0,0l2.718,2.718c0.004,-0.28 0.112,-0.558 0.325,-0.771c0.432,-0.433 1.135,-0.433 1.568,0c0.216,0.217 0.325,0.5 0.325,0.784l0,0l0,2.204l3.955,3.956l0,0c0.201,0.201 0.325,0.478 0.325,0.784c0,0.612 -0.497,1.109 -1.109,1.109l-3.171,0l0,7.782c0,0.612 -0.497,1.109 -1.109,1.109l-8.891,0c-0.612,0 -1.109,-0.497 -1.109,-1.109l0,-7.782l-3.502,0c-0.612,0 -1.109,-0.497 -1.109,-1.109c0,-0.306 0.124,-0.583 0.325,-0.784l0,0l8.872,-8.873Z"/></svg>