<svg xmlns="http://www.w3.org/2000/svg" id="Ebene_1" data-name="Ebene 1" viewBox="0 0 4978 4978"><defs><style>.cls-2{fill:#fff;stroke:#000;stroke-width:100px;stroke-miterlimit:10}</style></defs><path fill="#fff" stroke="#000" stroke-linecap="round" stroke-linejoin="round" stroke-width="100" d="M50 324C50 172 172 50 325 50h3250a275 275 0 0 1 195 79l1079 1080a275 275 0 0 1 79 195v3250c0 152-122 274-274 274H324a273 273 0 0 1-274-272v-2z"/><path d="M4072 3447c0-153-122-275-275-275H1084a273 273 0 0 0-275 272v1436h3263zM810 1435c0 152 122 274 274 274h1875c151 0 274-121 274-272V2H810z" class="cls-2" transform="translate(49 49)"/><path d="M2389 279a196 196 0 0 0-195 192v534c0 105 87 192 195 192h244c107 0 195-87 195-192V471c0-105-88-192-195-192h-244z" class="cls-2" transform="translate(49 49)"/></svg>