<svg xmlns="http://www.w3.org/2000/svg" data-name="Ebene 1" viewBox="0 0 4682.7 4682.7"><path d="M4607.7 2116.9l-378-140.8c-23-8.5-48.5-12.8-74-13a1839.2 1839.2 0 0 0-54-201.6c22-12.9 42-29.4 57.5-48.2l257-310.9c31.5-38.1 40.3-80 23-110l-140.7-243.8c-17.3-30-58-43.3-106.9-35l-397.7 67a216.7 216.7 0 0 0-71.1 26.2 1864.4 1864.4 0 0 0-148.1-148l.5.4c13-22.5 22.2-47 26.3-71.5l67.1-397.7c8.2-48.8-5.1-89.6-35-106.8l-243.8-140.8c-30-17.3-72-8.5-110 23l-311 257a218.4 218.4 0 0 0-48.7 58.5l.3.2a1839.3 1839.3 0 0 0-200.8-53.6 215.4 215.4 0 0 0-13-74.5L2566 75c-17.3-46.4-49.2-75-83.8-75h-281.5c-34.5 0-66.5 28.6-83.7 75l-141 378c-8.6 23-12.9 48.8-13 74.5a1839.2 1839.2 0 0 0-201.4 53.9 216.7 216.7 0 0 0-48.4-57.9l-310.9-257c-38.2-31.5-80.1-40.3-110-23l-243.8 140.7c-30 17.3-43.3 58-35 106.8l67 397.8a216.8 216.8 0 0 0 26.2 71.2 1864.5 1864.5 0 0 0-148.1 148.3l.4-.9a214.9 214.9 0 0 0-71.4-26.2L490 1014c-48.9-8.3-89.6 5-106.9 35l-140.7 244c-17.3 30-8.5 71.9 23 110l257 311a217.6 217.6 0 0 0 58.4 48.6 1839.2 1839.2 0 0 0-53.7 200.7 215 215 0 0 0-74.1 13L75 2116.9c-46.4 17.3-75 49.2-75 83.8v281.5c0 34.6 28.6 66.5 75 83.8l378 140.7a216.6 216.6 0 0 0 74 13 1839.3 1839.3 0 0 0 53.8 201.6 216.5 216.5 0 0 0-57.3 48l-257 311c-31.6 38.1-40.4 80-23 110l140.7 243.8c17.3 30 58 43.3 106.8 35l397.7-67a217.3 217.3 0 0 0 70.7-25.9A1864.5 1864.5 0 0 0 1107 3724a216.7 216.7 0 0 0-26 71l-67 397.7c-8.3 48.8 5 89.5 35 106.8l243.8 140.8c29.9 17.3 71.8 8.5 110-23l311-257a216.6 216.6 0 0 0 48.2-57.8 1839.2 1839.2 0 0 0 201 53.7 212 212 0 0 0 12.9 73.5l140.7 378c17.3 46.4 49.2 75 83.8 75H2482c34.6 0 66.5-28.6 83.8-75l140.7-378c8.5-22.8 12.8-48 13-73.5a1839.2 1839.2 0 0 0 202-54 216.3 216.3 0 0 0 47.8 57l311 257c38 31.5 80 40.3 110 23l243.8-140.7c29.9-17.3 43.3-58 35-106.9l-67-397.7c-4.2-24-13.2-48.3-25.8-70.5a1864.5 1864.5 0 0 0 147.7-147.9 216.7 216.7 0 0 0 71 26l397.7 67.1c48.8 8.3 89.5-5 106.8-35l140.8-243.8c17.2-30 8.4-71.9-23.1-110l-257-311a216.7 216.7 0 0 0-58-48.4 1839.3 1839.3 0 0 0 53.6-200.8 214.3 214.3 0 0 0 73.9-12.9l378-140.8c46.4-17.2 75-49.2 75-83.7v-281.5c0-34.6-28.6-66.5-75-83.8zm-2266.3 1625c-773.2 0-1400-626.9-1400-1400s626.8-1400 1400-1400 1400 626.7 1400 1400-626.8 1400-1400 1400z"/><path stroke="#fff" stroke-miterlimit="10" d="M2341.3 1641.1a700.2 700.2 0 1 0 0 1400.5 700.2 700.2 0 0 0 0-1400.5zm0 1050.7a350.5 350.5 0 0 1-11.8-700.9h11.8a350.5 350.5 0 0 1 0 700.9z"/></svg>