<svg xmlns="http://www.w3.org/2000/svg" data-name="Ebene 1" viewBox="0 0 4184 4990"><path d="M4079 188H2950v-83c0-53-53-105-105-105H1339c-52 0-105 52-105 105v83H105A105 105 0 0 0 0 293v125a105 105 0 0 0 105 105h3974a105 105 0 0 0 105-105V293a105 105 0 0 0-105-105zm-345 471H460a263 263 0 0 0-265 261 261 261 0 0 0 4 42l512 3797a252 252 0 0 0 251 231h2260a273 273 0 0 0 261-231l502-3797a262 262 0 0 0 4-42c0-140-114-257-255-261zM1579 4205a94 94 0 0 1-94 94h-177c-42 0-84-42-84-94V1444c0-46 38-84 84-84h177c53 0 94 31 94 84zm691 0c0 52-42 94-84 94h-178c-51 0-94-42-94-94V1444c0-53 42-84 94-84h178c46 0 84 38 84 84zm701 0c0 52-43 94-94 94h-178c-42 0-84-42-84-94V1444c0-46 38-84 84-84h178c52 0 94 31 94 84z"/></svg>