<?xml version="1.0" encoding="UTF-8" standalone="no"?><!DOCTYPE svg PUBLIC "-//W3C//DTD SVG 1.1//EN" "http://www.w3.org/Graphics/SVG/1.1/DTD/svg11.dtd"><svg width="100%" height="100%" viewBox="0 0 20 20" version="1.1" xmlns="http://www.w3.org/2000/svg" xmlns:xlink="http://www.w3.org/1999/xlink" xml:space="preserve" xmlns:serif="http://www.serif.com/" style="fill-rule:evenodd;clip-rule:evenodd;stroke-linejoin:round;stroke-miterlimit:1.41421;"><g><rect x="3.297" y="0.768" width="13.406" height="1.536"/><ellipse cx="3.297" cy="1.536" rx="0.797" ry="0.768"/><ellipse cx="16.703" cy="1.536" rx="0.797" ry="0.768"/></g><g><rect x="6.649" y="0" width="6.702" height="1.536"/><ellipse cx="6.649" cy="0.768" rx="0.797" ry="0.768"/><ellipse cx="13.351" cy="0.768" rx="0.797" ry="0.768"/></g><g><path d="M4.639,4.484l-2.135,0.18l1.307,14.394l2.135,-0.18l-1.307,-14.394Z"/><g><ellipse cx="3.571" cy="4.574" rx="1.071" ry="1.032"/><rect x="3.571" y="3.542" width="12.858" height="2.064"/><ellipse cx="16.429" cy="4.574" rx="1.071" ry="1.032"/></g><g><ellipse cx="4.879" cy="18.968" rx="1.071" ry="1.032"/><rect x="4.879" y="17.936" width="10.194" height="2.064"/><ellipse cx="15.121" cy="18.968" rx="1.071" ry="1.032"/></g><path d="M15.361,4.484l2.135,0.18l-1.307,14.394l-2.135,-0.18l1.307,-14.394Z"/></g><path d="M15.357,4.394l0,14.754l-10.714,0l0,-14.754l10.714,0Zm-7.438,2.779c0,-0.423 -0.357,-0.767 -0.796,-0.767c-0.439,0 -0.796,0.344 -0.796,0.767l0,9.196c0,0.423 0.357,0.767 0.796,0.767c0.439,0 0.796,-0.344 0.796,-0.767l0,-9.196Zm2.877,0c0,-0.423 -0.357,-0.767 -0.796,-0.767c-0.439,0 -0.796,0.344 -0.796,0.767l0,9.196c0,0.423 0.357,0.767 0.796,0.767c0.439,0 0.796,-0.344 0.796,-0.767l0,-9.196Zm2.877,0c0,-0.423 -0.357,-0.767 -0.796,-0.767c-0.439,0 -0.796,0.344 -0.796,0.767l0,9.196c0,0.423 0.357,0.767 0.796,0.767c0.439,0 0.796,-0.344 0.796,-0.767l0,-9.196Z"/></svg>