<?xml version="1.0" encoding="UTF-8" standalone="no"?><!DOCTYPE svg PUBLIC "-//W3C//DTD SVG 1.1//EN" "http://www.w3.org/Graphics/SVG/1.1/DTD/svg11.dtd"><svg width="100%" height="100%" viewBox="0 0 20 20" version="1.1" xmlns="http://www.w3.org/2000/svg" xmlns:xlink="http://www.w3.org/1999/xlink" xml:space="preserve" xmlns:serif="http://www.serif.com/" style="fill-rule:evenodd;clip-rule:evenodd;stroke-linejoin:round;stroke-miterlimit:1.41421;"><g id="thick-alt"><path d="M6.118,0.536c0.168,-0.319 0.502,-0.536 0.886,-0.536l5.992,0c0.384,0 0.718,0.217 0.886,0.536l2.342,0c0.552,0 1,0.448 1,1c0,0.552 -0.448,1 -1,1c0,0 -12.448,0 -12.448,0c-0.552,0 -1,-0.448 -1,-1c0,-0.552 0.448,-1 1,-1l2.342,0Z"/><path d="M14.887,20l-9.82,0l0,0c-0.542,0 -0.988,-0.419 -1.029,-0.951l-1.257,-14.374c-0.004,-0.033 -0.005,-0.067 -0.005,-0.101c0,-0.569 0.462,-1.032 1.032,-1.032l0,0l12.384,0l0,0c0.57,0 1.032,0.463 1.032,1.032c0,0.034 -0.001,0.068 -0.005,0.101l-1.257,14.374c-0.041,0.532 -0.487,0.951 -1.029,0.951c-0.016,0 -0.031,0 -0.046,-0.001l0,0.001Zm-8.887,-13.229c0,-0.552 0.448,-1 1,-1c0.552,0 1,0.448 1,1l0,10c0,0.552 -0.448,1 -1,1c-0.552,0 -1,-0.448 -1,-1l0,-10Zm3,0c0,-0.552 0.448,-1 1,-1c0.552,0 1,0.448 1,1l0,10c0,0.552 -0.448,1 -1,1c-0.552,0 -1,-0.448 -1,-1l0,-10Zm3,0c0,-0.552 0.448,-1 1,-1c0.552,0 1,0.448 1,1l0,10c0,0.552 -0.448,1 -1,1c-0.552,0 -1,-0.448 -1,-1l0,-10Z"/></g></svg>