<?xml version="1.0" encoding="UTF-8" standalone="no"?><!DOCTYPE svg PUBLIC "-//W3C//DTD SVG 1.1//EN" "http://www.w3.org/Graphics/SVG/1.1/DTD/svg11.dtd"><svg width="100%" height="100%" viewBox="0 0 20 20" version="1.1" xmlns="http://www.w3.org/2000/svg" xmlns:xlink="http://www.w3.org/1999/xlink" xml:space="preserve" xmlns:serif="http://www.serif.com/" style="fill-rule:evenodd;clip-rule:evenodd;stroke-linejoin:round;stroke-miterlimit:1.41421;"><g id="Upload"><g id="thick"><path d="M17.5,17.635c0,-0.266 -0.105,-0.52 -0.293,-0.707c-0.187,-0.188 -0.442,-0.293 -0.707,-0.293c-2.727,0 -10.273,0 -13,0c-0.265,0 -0.52,0.105 -0.707,0.293c-0.188,0.187 -0.293,0.441 -0.293,0.707c0,0.265 0.105,0.519 0.293,0.707c0.187,0.187 0.442,0.293 0.707,0.293c2.727,0 10.273,0 13,0c0.265,0 0.52,-0.106 0.707,-0.293c0.188,-0.188 0.293,-0.442 0.293,-0.707c0,0 0,0 0,0Z"/><path d="M7.115,10.019l-3.461,0c-0.637,0 -1.154,-0.517 -1.154,-1.154c0,-0.318 0.129,-0.606 0.338,-0.815l0,0l6.346,-6.347l0,0c0.209,-0.208 0.498,-0.338 0.816,-0.338c0.318,0 0.607,0.13 0.816,0.338l0,0l6.346,6.347l0,0c0.209,0.209 0.338,0.497 0.338,0.815c0,0.637 -0.517,1.154 -1.154,1.154l-3.461,0l0,3.462c0,0.637 -0.517,1.154 -1.154,1.154l-3.462,0c-0.637,0 -1.154,-0.517 -1.154,-1.154l0,-3.462Z"/></g></g></svg>