<?xml version="1.0" encoding="UTF-8" standalone="no"?><!DOCTYPE svg PUBLIC "-//W3C//DTD SVG 1.1//EN" "http://www.w3.org/Graphics/SVG/1.1/DTD/svg11.dtd"><svg width="100%" height="100%" viewBox="0 0 20 20" version="1.1" xmlns="http://www.w3.org/2000/svg" xmlns:xlink="http://www.w3.org/1999/xlink" xml:space="preserve" xmlns:serif="http://www.serif.com/" style="fill-rule:evenodd;clip-rule:evenodd;stroke-linecap:round;stroke-linejoin:round;stroke-miterlimit:1.5;"><g id="processing"><g><path d="M10,0.277c0.015,2.282 1.871,4.13 4.157,4.13c2.294,0 4.156,-1.863 4.156,-4.157l0,4.157c0,8.468 -3.597,15.343 -8.029,15.343c-0.095,0 -0.19,-0.003 -0.284,-0.01" style="fill:#d6cc14;stroke:#646464;stroke-width:0.5px;"/><path d="M10,19.74l-0.035,0.003c-0.083,0.005 -0.166,0.007 -0.249,0.007c-4.432,0 -8.029,-6.875 -8.029,-15.343l0,-4.157c0,2.294 1.862,4.157 4.156,4.157c2.294,0 4.157,-1.863 4.157,-4.157l0,0.027" style="fill:#ece52f;stroke:#646464;stroke-width:0.5px;"/></g><text x="3.559px" y="11.712px" style="font-family:'Roboto-Bold', 'Roboto';font-weight:700;font-size:14.913px;fill:#fff;">...</text></g></svg>