<?xml version="1.0" encoding="UTF-8" standalone="no"?><!DOCTYPE svg PUBLIC "-//W3C//DTD SVG 1.1//EN" "http://www.w3.org/Graphics/SVG/1.1/DTD/svg11.dtd"><svg width="100%" height="100%" viewBox="0 0 20 16" version="1.1" xmlns="http://www.w3.org/2000/svg" xmlns:xlink="http://www.w3.org/1999/xlink" xml:space="preserve" xmlns:serif="http://www.serif.com/" style="fill-rule:evenodd;clip-rule:evenodd;stroke-linejoin:round;stroke-miterlimit:1.41421;"><g id="round"><rect x="0" y="12.038" width="20" height="1.154" style="fill:#c2002e;"/><rect x="0" y="13.192" width="20" height="1.154" style="fill:#fff;"/><path d="M20,14.346l-20,0c0,0 0,0.06 0,0.154c0,0.265 0.105,0.519 0.293,0.707c0.187,0.187 0.442,0.293 0.707,0.293c3.414,0 14.586,0 18,0c0.265,0 0.52,-0.106 0.707,-0.293c0.188,-0.188 0.293,-0.442 0.293,-0.707c0,-0.094 0,-0.154 0,-0.154Z" style="fill:#c2002e;"/><rect x="0" y="10.884" width="20" height="1.154" style="fill:#fff;"/><rect x="0" y="9.731" width="20" height="1.154" style="fill:#c2002e;"/><rect x="0" y="8.577" width="20" height="1.154" style="fill:#fff;"/><rect x="0" y="7.423" width="20" height="1.154" style="fill:#c2002e;"/><rect x="0" y="6.269" width="20" height="1.154" style="fill:#fff;"/><rect x="0" y="5.115" width="20" height="1.154" style="fill:#c2002e;"/><rect x="0" y="3.962" width="20" height="1.154" style="fill:#fff;"/><rect x="0" y="2.808" width="20" height="1.154" style="fill:#c2002e;"/><rect x="0" y="1.654" width="20" height="1.154" style="fill:#fff;"/><path d="M20,1.5c0,-0.265 -0.105,-0.519 -0.293,-0.707c-0.187,-0.187 -0.442,-0.293 -0.707,-0.293c-3.414,0 -14.586,0 -18,0c-0.265,0 -0.52,0.106 -0.707,0.293c-0.188,0.188 -0.293,0.442 -0.293,0.707c0,0.094 0,0.154 0,0.154l20,0c0,0 0,-0.06 0,-0.154Z" style="fill:#c2002e;"/><path d="M8,0.5c0,0 -4.854,0 -7,0c-0.265,0 -0.52,0.106 -0.707,0.293c-0.188,0.188 -0.293,0.442 -0.293,0.707c0,2.162 0,7.077 0,7.077l8,0l0,-8.077Z" style="fill:#3d3a72;"/><g><g><path d="M7.402,5.874l0.09,0.277l0.291,0l-0.236,0.171l0.09,0.276l-0.235,-0.171l-0.235,0.171l0.09,-0.276l-0.235,-0.171l0.29,0l0.09,-0.277Z" style="fill:#fff;"/><path d="M6.041,5.874l0.09,0.277l0.291,0l-0.235,0.171l0.089,0.276l-0.235,-0.171l-0.235,0.171l0.09,-0.276l-0.235,-0.171l0.29,0l0.09,-0.277Z" style="fill:#fff;"/><path d="M4.68,5.874l0.09,0.277l0.291,0l-0.235,0.171l0.09,0.276l-0.236,-0.171l-0.235,0.171l0.09,-0.276l-0.235,-0.171l0.291,0l0.089,-0.277Z" style="fill:#fff;"/><path d="M3.32,5.874l0.089,0.277l0.291,0l-0.235,0.171l0.09,0.276l-0.235,-0.171l-0.236,0.171l0.09,-0.276l-0.235,-0.171l0.291,0l0.09,-0.277Z" style="fill:#fff;"/><path d="M1.959,5.874l0.09,0.277l0.29,0l-0.235,0.171l0.09,0.276l-0.235,-0.171l-0.235,0.171l0.089,-0.276l-0.235,-0.171l0.291,0l0.09,-0.277Z" style="fill:#fff;"/><path d="M0.598,5.874l0.09,0.277l0.29,0l-0.235,0.171l0.09,0.276l-0.235,-0.171l-0.235,0.171l0.09,-0.276l-0.236,-0.171l0.291,0l0.09,-0.277Z" style="fill:#fff;"/></g><g><path d="M7.402,7.572l0.09,0.276l0.291,0l-0.236,0.171l0.09,0.276l-0.235,-0.171l-0.235,0.171l0.09,-0.276l-0.235,-0.171l0.29,0l0.09,-0.276Z" style="fill:#fff;"/><path d="M6.041,7.572l0.09,0.276l0.291,0l-0.235,0.171l0.089,0.276l-0.235,-0.171l-0.235,0.171l0.09,-0.276l-0.235,-0.171l0.29,0l0.09,-0.276Z" style="fill:#fff;"/><path d="M4.68,7.572l0.09,0.276l0.291,0l-0.235,0.171l0.09,0.276l-0.236,-0.171l-0.235,0.171l0.09,-0.276l-0.235,-0.171l0.291,0l0.089,-0.276Z" style="fill:#fff;"/><path d="M3.32,7.572l0.089,0.276l0.291,0l-0.235,0.171l0.09,0.276l-0.235,-0.171l-0.236,0.171l0.09,-0.276l-0.235,-0.171l0.291,0l0.09,-0.276Z" style="fill:#fff;"/><path d="M1.959,7.572l0.09,0.276l0.29,0l-0.235,0.171l0.09,0.276l-0.235,-0.171l-0.235,0.171l0.089,-0.276l-0.235,-0.171l0.291,0l0.09,-0.276Z" style="fill:#fff;"/><path d="M0.598,7.572l0.09,0.276l0.29,0l-0.235,0.171l0.09,0.276l-0.235,-0.171l-0.235,0.171l0.09,-0.276l-0.236,-0.171l0.291,0l0.09,-0.276Z" style="fill:#fff;"/></g><g><path d="M7.402,4.177l0.09,0.276l0.291,0l-0.236,0.171l0.09,0.277l-0.235,-0.171l-0.235,0.171l0.09,-0.277l-0.235,-0.171l0.29,0l0.09,-0.276Z" style="fill:#fff;"/><path d="M6.041,4.177l0.09,0.276l0.291,0l-0.235,0.171l0.089,0.277l-0.235,-0.171l-0.235,0.171l0.09,-0.277l-0.235,-0.171l0.29,0l0.09,-0.276Z" style="fill:#fff;"/><path d="M4.68,4.177l0.09,0.276l0.291,0l-0.235,0.171l0.09,0.277l-0.236,-0.171l-0.235,0.171l0.09,-0.277l-0.235,-0.171l0.291,0l0.089,-0.276Z" style="fill:#fff;"/><path d="M3.32,4.177l0.089,0.276l0.291,0l-0.235,0.171l0.09,0.277l-0.235,-0.171l-0.236,0.171l0.09,-0.277l-0.235,-0.171l0.291,0l0.09,-0.276Z" style="fill:#fff;"/><path d="M1.959,4.177l0.09,0.276l0.29,0l-0.235,0.171l0.09,0.277l-0.235,-0.171l-0.235,0.171l0.089,-0.277l-0.235,-0.171l0.291,0l0.09,-0.276Z" style="fill:#fff;"/><path d="M0.598,4.177l0.09,0.276l0.29,0l-0.235,0.171l0.09,0.277l-0.235,-0.171l-0.235,0.171l0.09,-0.277l-0.236,-0.171l0.291,0l0.09,-0.276Z" style="fill:#fff;"/></g><g><path d="M7.402,2.48l0.09,0.276l0.291,0l-0.236,0.171l0.09,0.276l-0.235,-0.17l-0.235,0.17l0.09,-0.276l-0.235,-0.171l0.29,0l0.09,-0.276Z" style="fill:#fff;"/><path d="M6.041,2.48l0.09,0.276l0.291,0l-0.235,0.171l0.089,0.276l-0.235,-0.17l-0.235,0.17l0.09,-0.276l-0.235,-0.171l0.29,0l0.09,-0.276Z" style="fill:#fff;"/><path d="M4.68,2.48l0.09,0.276l0.291,0l-0.235,0.171l0.09,0.276l-0.236,-0.17l-0.235,0.17l0.09,-0.276l-0.235,-0.171l0.291,0l0.089,-0.276Z" style="fill:#fff;"/><path d="M3.32,2.48l0.089,0.276l0.291,0l-0.235,0.171l0.09,0.276l-0.235,-0.17l-0.236,0.17l0.09,-0.276l-0.235,-0.171l0.291,0l0.09,-0.276Z" style="fill:#fff;"/><path d="M1.959,2.48l0.09,0.276l0.29,0l-0.235,0.171l0.09,0.276l-0.235,-0.17l-0.235,0.17l0.089,-0.276l-0.235,-0.171l0.291,0l0.09,-0.276Z" style="fill:#fff;"/><path d="M0.598,2.48l0.09,0.276l0.29,0l-0.235,0.171l0.09,0.276l-0.235,-0.17l-0.235,0.17l0.09,-0.276l-0.236,-0.171l0.291,0l0.09,-0.276Z" style="fill:#fff;"/></g><g><path d="M6.722,1.631l0.089,0.277l0.291,0l-0.235,0.17l0.09,0.277l-0.235,-0.171l-0.235,0.171l0.089,-0.277l-0.235,-0.17l0.291,0l0.09,-0.277Z" style="fill:#fff;"/><path d="M5.361,1.631l0.09,0.277l0.29,0l-0.235,0.17l0.09,0.277l-0.235,-0.171l-0.235,0.171l0.09,-0.277l-0.236,-0.17l0.291,0l0.09,-0.277Z" style="fill:#fff;"/><path d="M4,1.631l0.09,0.277l0.29,0l-0.235,0.17l0.09,0.277l-0.235,-0.171l-0.235,0.171l0.09,-0.277l-0.235,-0.17l0.29,0l0.09,-0.277Z" style="fill:#fff;"/><path d="M2.639,1.631l0.09,0.277l0.291,0l-0.236,0.17l0.09,0.277l-0.235,-0.171l-0.235,0.171l0.09,-0.277l-0.235,-0.17l0.29,0l0.09,-0.277Z" style="fill:#fff;"/><path d="M1.278,1.631l0.09,0.277l0.291,0l-0.235,0.17l0.089,0.277l-0.235,-0.171l-0.235,0.171l0.09,-0.277l-0.235,-0.17l0.291,0l0.089,-0.277Z" style="fill:#fff;"/></g><g><path d="M6.722,3.328l0.089,0.277l0.291,0l-0.235,0.171l0.09,0.276l-0.235,-0.171l-0.235,0.171l0.089,-0.276l-0.235,-0.171l0.291,0l0.09,-0.277Z" style="fill:#fff;"/><path d="M5.361,3.328l0.09,0.277l0.29,0l-0.235,0.171l0.09,0.276l-0.235,-0.171l-0.235,0.171l0.09,-0.276l-0.236,-0.171l0.291,0l0.09,-0.277Z" style="fill:#fff;"/><path d="M4,3.328l0.09,0.277l0.29,0l-0.235,0.171l0.09,0.276l-0.235,-0.171l-0.235,0.171l0.09,-0.276l-0.235,-0.171l0.29,0l0.09,-0.277Z" style="fill:#fff;"/><path d="M2.639,3.328l0.09,0.277l0.291,0l-0.236,0.171l0.09,0.276l-0.235,-0.171l-0.235,0.171l0.09,-0.276l-0.235,-0.171l0.29,0l0.09,-0.277Z" style="fill:#fff;"/><path d="M1.278,3.328l0.09,0.277l0.291,0l-0.235,0.171l0.089,0.276l-0.235,-0.171l-0.235,0.171l0.09,-0.276l-0.235,-0.171l0.291,0l0.089,-0.277Z" style="fill:#fff;"/></g><g><path d="M6.722,5.026l0.089,0.276l0.291,0l-0.235,0.171l0.09,0.276l-0.235,-0.171l-0.235,0.171l0.089,-0.276l-0.235,-0.171l0.291,0l0.09,-0.276Z" style="fill:#fff;"/><path d="M5.361,5.026l0.09,0.276l0.29,0l-0.235,0.171l0.09,0.276l-0.235,-0.171l-0.235,0.171l0.09,-0.276l-0.236,-0.171l0.291,0l0.09,-0.276Z" style="fill:#fff;"/><path d="M4,5.026l0.09,0.276l0.29,0l-0.235,0.171l0.09,0.276l-0.235,-0.171l-0.235,0.171l0.09,-0.276l-0.235,-0.171l0.29,0l0.09,-0.276Z" style="fill:#fff;"/><path d="M2.639,5.026l0.09,0.276l0.291,0l-0.236,0.171l0.09,0.276l-0.235,-0.171l-0.235,0.171l0.09,-0.276l-0.235,-0.171l0.29,0l0.09,-0.276Z" style="fill:#fff;"/><path d="M1.278,5.026l0.09,0.276l0.291,0l-0.235,0.171l0.089,0.276l-0.235,-0.171l-0.235,0.171l0.09,-0.276l-0.235,-0.171l0.291,0l0.089,-0.276Z" style="fill:#fff;"/></g><g><path d="M6.722,6.723l0.089,0.276l0.291,0l-0.235,0.171l0.09,0.277l-0.235,-0.171l-0.235,0.171l0.089,-0.277l-0.235,-0.171l0.291,0l0.09,-0.276Z" style="fill:#fff;"/><path d="M5.361,6.723l0.09,0.276l0.29,0l-0.235,0.171l0.09,0.277l-0.235,-0.171l-0.235,0.171l0.09,-0.277l-0.236,-0.171l0.291,0l0.09,-0.276Z" style="fill:#fff;"/><path d="M4,6.723l0.09,0.276l0.29,0l-0.235,0.171l0.09,0.277l-0.235,-0.171l-0.235,0.171l0.09,-0.277l-0.235,-0.171l0.29,0l0.09,-0.276Z" style="fill:#fff;"/><path d="M2.639,6.723l0.09,0.276l0.291,0l-0.236,0.171l0.09,0.277l-0.235,-0.171l-0.235,0.171l0.09,-0.277l-0.235,-0.171l0.29,0l0.09,-0.276Z" style="fill:#fff;"/><path d="M1.278,6.723l0.09,0.276l0.291,0l-0.235,0.171l0.089,0.277l-0.235,-0.171l-0.235,0.171l0.09,-0.277l-0.235,-0.171l0.291,0l0.089,-0.276Z" style="fill:#fff;"/></g><g><path d="M7.402,0.783l0.09,0.276l0.291,0l-0.236,0.171l0.09,0.276l-0.235,-0.171l-0.235,0.171l0.09,-0.276l-0.235,-0.171l0.29,0l0.09,-0.276Z" style="fill:#fff;"/><path d="M6.041,0.783l0.09,0.276l0.291,0l-0.235,0.171l0.089,0.276l-0.235,-0.171l-0.235,0.171l0.09,-0.276l-0.235,-0.171l0.29,0l0.09,-0.276Z" style="fill:#fff;"/><path d="M4.68,0.783l0.09,0.276l0.291,0l-0.235,0.171l0.09,0.276l-0.236,-0.171l-0.235,0.171l0.09,-0.276l-0.235,-0.171l0.291,0l0.089,-0.276Z" style="fill:#fff;"/><path d="M3.32,0.783l0.089,0.276l0.291,0l-0.235,0.171l0.09,0.276l-0.235,-0.171l-0.236,0.171l0.09,-0.276l-0.235,-0.171l0.291,0l0.09,-0.276Z" style="fill:#fff;"/><path d="M1.959,0.783l0.09,0.276l0.29,0l-0.235,0.171l0.09,0.276l-0.235,-0.171l-0.235,0.171l0.089,-0.276l-0.235,-0.171l0.291,0l0.09,-0.276Z" style="fill:#fff;"/><path d="M0.598,0.783l0.09,0.276l0.29,0l-0.235,0.171l0.09,0.276l-0.235,-0.171l-0.235,0.171l0.09,-0.276l-0.236,-0.171l0.291,0l0.09,-0.276Z" style="fill:#fff;"/></g></g></g></svg>