<?xml version="1.0" encoding="UTF-8" standalone="no"?><!DOCTYPE svg PUBLIC "-//W3C//DTD SVG 1.1//EN" "http://www.w3.org/Graphics/SVG/1.1/DTD/svg11.dtd"><svg width="100%" height="100%" viewBox="0 0 14 16" version="1.1" xmlns="http://www.w3.org/2000/svg" xmlns:xlink="http://www.w3.org/1999/xlink" xml:space="preserve" xmlns:serif="http://www.serif.com/" style="fill-rule:evenodd;clip-rule:evenodd;stroke-linejoin:round;stroke-miterlimit:1.41421;"><g id="thick"><path d="M4.5,1.186c0,-0.551 0.448,-1 1,-1l3,0c0.552,0 1,0.449 1,1l0,3.2l2.928,0c0.552,0 1,0.449 1,1c0,0.276 -0.112,0.526 -0.293,0.707l0,0.001l-3.421,3.42l0,0.044l-0.044,0l-1.962,1.963l-0.001,-0.001l-0.001,0.001c-0.39,0.39 -1.024,0.39 -1.414,0l-1.962,-1.963l-0.044,0l0,-0.044l-3.421,-3.42l0,-0.001c-0.181,-0.181 -0.293,-0.431 -0.293,-0.707c0,-0.551 0.448,-1 1,-1l2.928,0l0,-3.2Z"/><path d="M12.436,13.814c0.549,0.003 0.994,0.45 0.994,1c0,0.551 -0.448,1 -1,1l-10.86,0l-0.006,0c-0.549,-0.004 -0.994,-0.451 -0.994,-1c0,-0.552 0.448,-1 1,-1l10.86,0l0.006,0Z"/></g></svg>