<?xml version="1.0" encoding="UTF-8" standalone="no"?><!DOCTYPE svg PUBLIC "-//W3C//DTD SVG 1.1//EN" "http://www.w3.org/Graphics/SVG/1.1/DTD/svg11.dtd"><svg width="100%" height="100%" viewBox="0 0 20 15" version="1.1" xmlns="http://www.w3.org/2000/svg" xmlns:xlink="http://www.w3.org/1999/xlink" xml:space="preserve" xmlns:serif="http://www.serif.com/" style="fill-rule:evenodd;clip-rule:evenodd;stroke-linejoin:round;stroke-miterlimit:1.41421;"><g id="envelope"><path id="thick" d="M1,0l0,0l18,0l0.05,0.001l0.016,0.001c0.035,0.002 0.068,0.006 0.101,0.012l0.017,0.003c0.192,0.035 0.375,0.127 0.523,0.276c0.149,0.148 0.241,0.331 0.276,0.523l0.003,0.017c0.006,0.033 0.01,0.066 0.012,0.101l0.002,0.036l0,0.017l0,0.013l0,13c0,0.552 -0.448,1 -1,1c0,0 -18,0 -18,0c-0.552,0 -1,-0.448 -1,-1l0,-13l0,0c0,-0.004 0,-0.009 0,-0.013l0,0l0,0l0,-0.005l0,-0.001l0,0l0,-0.001l0,-0.004l0,-0.001l0,-0.001l0,-0.001l0,-0.003l0,-0.002l0.001,0l0,-0.002l0,-0.002l0,-0.002l0,-0.001l0,-0.001l0,-0.002l0,-0.002l0,-0.001l0,-0.002l0,-0.001l0,-0.002l0,-0.001l0,-0.002l0,-0.001l0.001,-0.001l0,-0.003l0,-0.002l0,0l0,-0.001l0,-0.003l0,-0.002l0,0l0,0c0.002,-0.035 0.006,-0.068 0.012,-0.101l0,-0.001l0,0l0.001,-0.003l0,-0.002l0,0l0,-0.001l0.001,-0.003l0,-0.001l0,-0.001l0,-0.003l0.001,-0.001l0,-0.001c0.035,-0.192 0.127,-0.375 0.276,-0.523c0.148,-0.149 0.331,-0.241 0.523,-0.276l0.001,0l0.001,-0.001l0.003,0l0.001,0l0.001,0l0.003,-0.001l0.001,0l0,0l0.002,0l0.003,-0.001l0,0l0.001,0c0.033,-0.006 0.066,-0.01 0.101,-0.012l0,0l0,0l0.002,0l0.003,0l0.001,0l0,0l0.002,0l0.003,0l0.001,-0.001l0.001,0l0.002,0l0.001,0l0.002,0l0.001,0l0.002,0l0.001,0l0.002,0l0.002,0l0.001,0l0.001,0l0.002,0l0.002,0l0.002,0l0,-0.001l0.002,0l0.003,0l0.001,0l0.001,0l0.001,0l0.004,0l0.001,0l0,0l0.001,0l0.005,0l0,0l0,0c0.004,0 0.009,0 0.013,0Zm9.707,10.707l0,0c-0.181,0.181 -0.431,0.293 -0.707,0.293c-0.276,0 -0.526,-0.112 -0.707,-0.293l0,0l-7.293,-7.293l0,9.586l16,0l0,-4c0,0 0,-5.586 0,-5.586l-7.293,7.293Zm-7.293,-8.707l6.586,6.586l6.586,-6.586l-13.172,0Z"/></g></svg>