<?xml version="1.0" encoding="UTF-8" standalone="no"?><!DOCTYPE svg PUBLIC "-//W3C//DTD SVG 1.1//EN" "http://www.w3.org/Graphics/SVG/1.1/DTD/svg11.dtd"><svg width="100%" height="100%" viewBox="0 0 20 15" version="1.1" xmlns="http://www.w3.org/2000/svg" xmlns:xlink="http://www.w3.org/1999/xlink" xml:space="preserve" xmlns:serif="http://www.serif.com/" style="fill-rule:evenodd;clip-rule:evenodd;stroke-linejoin:round;stroke-miterlimit:1.41421;"><g id="American"><g id="round"><rect x="0" y="11.538" width="20" height="1.154" style="fill:#c2002e;"/><rect x="0" y="12.692" width="20" height="1.154" style="fill:#fff;"/><path d="M20,13.846l-20,0c0,0 0,0.06 0,0.153c0,0.266 0.105,0.52 0.293,0.708c0.187,0.187 0.442,0.292 0.707,0.292c3.414,0 14.586,0 18,0c0.265,0 0.52,-0.105 0.707,-0.292c0.188,-0.188 0.293,-0.442 0.293,-0.708c0,-0.093 0,-0.153 0,-0.153Z" style="fill:#c2002e;"/><rect x="0" y="10.384" width="20" height="1.154" style="fill:#fff;"/><rect x="0" y="9.23" width="20" height="1.154" style="fill:#c2002e;"/><rect x="0" y="8.077" width="20" height="1.154" style="fill:#fff;"/><rect x="0" y="6.923" width="20" height="1.154" style="fill:#c2002e;"/><rect x="0" y="5.769" width="20" height="1.154" style="fill:#fff;"/><rect x="0" y="4.615" width="20" height="1.154" style="fill:#c2002e;"/><rect x="0" y="3.461" width="20" height="1.154" style="fill:#fff;"/><rect x="0" y="2.308" width="20" height="1.154" style="fill:#c2002e;"/><rect x="0" y="1.154" width="20" height="1.154" style="fill:#fff;"/><path d="M20,1c0,-0.265 -0.105,-0.52 -0.293,-0.707c-0.187,-0.188 -0.442,-0.293 -0.707,-0.293c-3.414,0 -14.586,0 -18,0c-0.265,0 -0.52,0.105 -0.707,0.293c-0.188,0.187 -0.293,0.442 -0.293,0.707c0,0.093 0,0.154 0,0.154l20,0c0,0 0,-0.061 0,-0.154Z" style="fill:#c2002e;"/><path d="M8,0c0,0 -4.854,0 -7,0c-0.265,0 -0.52,0.105 -0.707,0.293c-0.188,0.187 -0.293,0.442 -0.293,0.707c0,2.162 0,7.077 0,7.077l8,0l0,-8.077Z" style="fill:#3d3a72;"/><g><g><path d="M7.402,5.374l0.09,0.276l0.291,0l-0.236,0.171l0.09,0.277l-0.235,-0.171l-0.235,0.171l0.09,-0.277l-0.235,-0.171l0.29,0l0.09,-0.276Z" style="fill:#fff;"/><path d="M6.041,5.374l0.09,0.276l0.291,0l-0.235,0.171l0.089,0.277l-0.235,-0.171l-0.235,0.171l0.09,-0.277l-0.235,-0.171l0.29,0l0.09,-0.276Z" style="fill:#fff;"/><path d="M4.68,5.374l0.09,0.276l0.291,0l-0.235,0.171l0.09,0.277l-0.236,-0.171l-0.235,0.171l0.09,-0.277l-0.235,-0.171l0.291,0l0.089,-0.276Z" style="fill:#fff;"/><path d="M3.32,5.374l0.089,0.276l0.291,0l-0.235,0.171l0.09,0.277l-0.235,-0.171l-0.236,0.171l0.09,-0.277l-0.235,-0.171l0.291,0l0.09,-0.276Z" style="fill:#fff;"/><path d="M1.959,5.374l0.09,0.276l0.29,0l-0.235,0.171l0.09,0.277l-0.235,-0.171l-0.235,0.171l0.089,-0.277l-0.235,-0.171l0.291,0l0.09,-0.276Z" style="fill:#fff;"/><path d="M0.598,5.374l0.09,0.276l0.29,0l-0.235,0.171l0.09,0.277l-0.235,-0.171l-0.235,0.171l0.09,-0.277l-0.236,-0.171l0.291,0l0.09,-0.276Z" style="fill:#fff;"/></g><g><path d="M7.402,7.071l0.09,0.277l0.291,0l-0.236,0.17l0.09,0.277l-0.235,-0.171l-0.235,0.171l0.09,-0.277l-0.235,-0.17l0.29,0l0.09,-0.277Z" style="fill:#fff;"/><path d="M6.041,7.071l0.09,0.277l0.291,0l-0.235,0.17l0.089,0.277l-0.235,-0.171l-0.235,0.171l0.09,-0.277l-0.235,-0.17l0.29,0l0.09,-0.277Z" style="fill:#fff;"/><path d="M4.68,7.071l0.09,0.277l0.291,0l-0.235,0.17l0.09,0.277l-0.236,-0.171l-0.235,0.171l0.09,-0.277l-0.235,-0.17l0.291,0l0.089,-0.277Z" style="fill:#fff;"/><path d="M3.32,7.071l0.089,0.277l0.291,0l-0.235,0.17l0.09,0.277l-0.235,-0.171l-0.236,0.171l0.09,-0.277l-0.235,-0.17l0.291,0l0.09,-0.277Z" style="fill:#fff;"/><path d="M1.959,7.071l0.09,0.277l0.29,0l-0.235,0.17l0.09,0.277l-0.235,-0.171l-0.235,0.171l0.089,-0.277l-0.235,-0.17l0.291,0l0.09,-0.277Z" style="fill:#fff;"/><path d="M0.598,7.071l0.09,0.277l0.29,0l-0.235,0.17l0.09,0.277l-0.235,-0.171l-0.235,0.171l0.09,-0.277l-0.236,-0.17l0.291,0l0.09,-0.277Z" style="fill:#fff;"/></g><g><path d="M7.402,3.677l0.09,0.276l0.291,0l-0.236,0.171l0.09,0.276l-0.235,-0.17l-0.235,0.17l0.09,-0.276l-0.235,-0.171l0.29,0l0.09,-0.276Z" style="fill:#fff;"/><path d="M6.041,3.677l0.09,0.276l0.291,0l-0.235,0.171l0.089,0.276l-0.235,-0.17l-0.235,0.17l0.09,-0.276l-0.235,-0.171l0.29,0l0.09,-0.276Z" style="fill:#fff;"/><path d="M4.68,3.677l0.09,0.276l0.291,0l-0.235,0.171l0.09,0.276l-0.236,-0.17l-0.235,0.17l0.09,-0.276l-0.235,-0.171l0.291,0l0.089,-0.276Z" style="fill:#fff;"/><path d="M3.32,3.677l0.089,0.276l0.291,0l-0.235,0.171l0.09,0.276l-0.235,-0.17l-0.236,0.17l0.09,-0.276l-0.235,-0.171l0.291,0l0.09,-0.276Z" style="fill:#fff;"/><path d="M1.959,3.677l0.09,0.276l0.29,0l-0.235,0.171l0.09,0.276l-0.235,-0.17l-0.235,0.17l0.089,-0.276l-0.235,-0.171l0.291,0l0.09,-0.276Z" style="fill:#fff;"/><path d="M0.598,3.677l0.09,0.276l0.29,0l-0.235,0.171l0.09,0.276l-0.235,-0.17l-0.235,0.17l0.09,-0.276l-0.236,-0.171l0.291,0l0.09,-0.276Z" style="fill:#fff;"/></g><g><path d="M7.402,1.98l0.09,0.276l0.291,0l-0.236,0.171l0.09,0.276l-0.235,-0.171l-0.235,0.171l0.09,-0.276l-0.235,-0.171l0.29,0l0.09,-0.276Z" style="fill:#fff;"/><path d="M6.041,1.98l0.09,0.276l0.291,0l-0.235,0.171l0.089,0.276l-0.235,-0.171l-0.235,0.171l0.09,-0.276l-0.235,-0.171l0.29,0l0.09,-0.276Z" style="fill:#fff;"/><path d="M4.68,1.98l0.09,0.276l0.291,0l-0.235,0.171l0.09,0.276l-0.236,-0.171l-0.235,0.171l0.09,-0.276l-0.235,-0.171l0.291,0l0.089,-0.276Z" style="fill:#fff;"/><path d="M3.32,1.98l0.089,0.276l0.291,0l-0.235,0.171l0.09,0.276l-0.235,-0.171l-0.236,0.171l0.09,-0.276l-0.235,-0.171l0.291,0l0.09,-0.276Z" style="fill:#fff;"/><path d="M1.959,1.98l0.09,0.276l0.29,0l-0.235,0.171l0.09,0.276l-0.235,-0.171l-0.235,0.171l0.089,-0.276l-0.235,-0.171l0.291,0l0.09,-0.276Z" style="fill:#fff;"/><path d="M0.598,1.98l0.09,0.276l0.29,0l-0.235,0.171l0.09,0.276l-0.235,-0.171l-0.235,0.171l0.09,-0.276l-0.236,-0.171l0.291,0l0.09,-0.276Z" style="fill:#fff;"/></g><g><path d="M6.722,1.131l0.089,0.276l0.291,0l-0.235,0.171l0.09,0.277l-0.235,-0.171l-0.235,0.171l0.089,-0.277l-0.235,-0.171l0.291,0l0.09,-0.276Z" style="fill:#fff;"/><path d="M5.361,1.131l0.09,0.276l0.29,0l-0.235,0.171l0.09,0.277l-0.235,-0.171l-0.235,0.171l0.09,-0.277l-0.236,-0.171l0.291,0l0.09,-0.276Z" style="fill:#fff;"/><path d="M4,1.131l0.09,0.276l0.29,0l-0.235,0.171l0.09,0.277l-0.235,-0.171l-0.235,0.171l0.09,-0.277l-0.235,-0.171l0.29,0l0.09,-0.276Z" style="fill:#fff;"/><path d="M2.639,1.131l0.09,0.276l0.291,0l-0.236,0.171l0.09,0.277l-0.235,-0.171l-0.235,0.171l0.09,-0.277l-0.235,-0.171l0.29,0l0.09,-0.276Z" style="fill:#fff;"/><path d="M1.278,1.131l0.09,0.276l0.291,0l-0.235,0.171l0.089,0.277l-0.235,-0.171l-0.235,0.171l0.09,-0.277l-0.235,-0.171l0.291,0l0.089,-0.276Z" style="fill:#fff;"/></g><g><path d="M6.722,2.828l0.089,0.277l0.291,0l-0.235,0.17l0.09,0.277l-0.235,-0.171l-0.235,0.171l0.089,-0.277l-0.235,-0.17l0.291,0l0.09,-0.277Z" style="fill:#fff;"/><path d="M5.361,2.828l0.09,0.277l0.29,0l-0.235,0.17l0.09,0.277l-0.235,-0.171l-0.235,0.171l0.09,-0.277l-0.236,-0.17l0.291,0l0.09,-0.277Z" style="fill:#fff;"/><path d="M4,2.828l0.09,0.277l0.29,0l-0.235,0.17l0.09,0.277l-0.235,-0.171l-0.235,0.171l0.09,-0.277l-0.235,-0.17l0.29,0l0.09,-0.277Z" style="fill:#fff;"/><path d="M2.639,2.828l0.09,0.277l0.291,0l-0.236,0.17l0.09,0.277l-0.235,-0.171l-0.235,0.171l0.09,-0.277l-0.235,-0.17l0.29,0l0.09,-0.277Z" style="fill:#fff;"/><path d="M1.278,2.828l0.09,0.277l0.291,0l-0.235,0.17l0.089,0.277l-0.235,-0.171l-0.235,0.171l0.09,-0.277l-0.235,-0.17l0.291,0l0.089,-0.277Z" style="fill:#fff;"/></g><g><path d="M6.722,4.525l0.089,0.277l0.291,0l-0.235,0.171l0.09,0.276l-0.235,-0.171l-0.235,0.171l0.089,-0.276l-0.235,-0.171l0.291,0l0.09,-0.277Z" style="fill:#fff;"/><path d="M5.361,4.525l0.09,0.277l0.29,0l-0.235,0.171l0.09,0.276l-0.235,-0.171l-0.235,0.171l0.09,-0.276l-0.236,-0.171l0.291,0l0.09,-0.277Z" style="fill:#fff;"/><path d="M4,4.525l0.09,0.277l0.29,0l-0.235,0.171l0.09,0.276l-0.235,-0.171l-0.235,0.171l0.09,-0.276l-0.235,-0.171l0.29,0l0.09,-0.277Z" style="fill:#fff;"/><path d="M2.639,4.525l0.09,0.277l0.291,0l-0.236,0.171l0.09,0.276l-0.235,-0.171l-0.235,0.171l0.09,-0.276l-0.235,-0.171l0.29,0l0.09,-0.277Z" style="fill:#fff;"/><path d="M1.278,4.525l0.09,0.277l0.291,0l-0.235,0.171l0.089,0.276l-0.235,-0.171l-0.235,0.171l0.09,-0.276l-0.235,-0.171l0.291,0l0.089,-0.277Z" style="fill:#fff;"/></g><g><path d="M6.722,6.223l0.089,0.276l0.291,0l-0.235,0.171l0.09,0.276l-0.235,-0.171l-0.235,0.171l0.089,-0.276l-0.235,-0.171l0.291,0l0.09,-0.276Z" style="fill:#fff;"/><path d="M5.361,6.223l0.09,0.276l0.29,0l-0.235,0.171l0.09,0.276l-0.235,-0.171l-0.235,0.171l0.09,-0.276l-0.236,-0.171l0.291,0l0.09,-0.276Z" style="fill:#fff;"/><path d="M4,6.223l0.09,0.276l0.29,0l-0.235,0.171l0.09,0.276l-0.235,-0.171l-0.235,0.171l0.09,-0.276l-0.235,-0.171l0.29,0l0.09,-0.276Z" style="fill:#fff;"/><path d="M2.639,6.223l0.09,0.276l0.291,0l-0.236,0.171l0.09,0.276l-0.235,-0.171l-0.235,0.171l0.09,-0.276l-0.235,-0.171l0.29,0l0.09,-0.276Z" style="fill:#fff;"/><path d="M1.278,6.223l0.09,0.276l0.291,0l-0.235,0.171l0.089,0.276l-0.235,-0.171l-0.235,0.171l0.09,-0.276l-0.235,-0.171l0.291,0l0.089,-0.276Z" style="fill:#fff;"/></g><g><path d="M7.402,0.282l0.09,0.277l0.291,0l-0.236,0.171l0.09,0.276l-0.235,-0.171l-0.235,0.171l0.09,-0.276l-0.235,-0.171l0.29,0l0.09,-0.277Z" style="fill:#fff;"/><path d="M6.041,0.282l0.09,0.277l0.291,0l-0.235,0.171l0.089,0.276l-0.235,-0.171l-0.235,0.171l0.09,-0.276l-0.235,-0.171l0.29,0l0.09,-0.277Z" style="fill:#fff;"/><path d="M4.68,0.282l0.09,0.277l0.291,0l-0.235,0.171l0.09,0.276l-0.236,-0.171l-0.235,0.171l0.09,-0.276l-0.235,-0.171l0.291,0l0.089,-0.277Z" style="fill:#fff;"/><path d="M3.32,0.282l0.089,0.277l0.291,0l-0.235,0.171l0.09,0.276l-0.235,-0.171l-0.236,0.171l0.09,-0.276l-0.235,-0.171l0.291,0l0.09,-0.277Z" style="fill:#fff;"/><path d="M1.959,0.282l0.09,0.277l0.29,0l-0.235,0.171l0.09,0.276l-0.235,-0.171l-0.235,0.171l0.089,-0.276l-0.235,-0.171l0.291,0l0.09,-0.277Z" style="fill:#fff;"/><path d="M0.598,0.282l0.09,0.277l0.29,0l-0.235,0.171l0.09,0.276l-0.235,-0.171l-0.235,0.171l0.09,-0.276l-0.236,-0.171l0.291,0l0.09,-0.277Z" style="fill:#fff;"/></g></g></g></g></svg>