<?xml version="1.0" encoding="UTF-8" standalone="no"?><!DOCTYPE svg PUBLIC "-//W3C//DTD SVG 1.1//EN" "http://www.w3.org/Graphics/SVG/1.1/DTD/svg11.dtd"><svg width="100%" height="100%" viewBox="0 0 12 14" version="1.1" xmlns="http://www.w3.org/2000/svg" xmlns:xlink="http://www.w3.org/1999/xlink" xml:space="preserve" xmlns:serif="http://www.serif.com/" style="fill-rule:evenodd;clip-rule:evenodd;stroke-linejoin:round;stroke-miterlimit:1.41421;"><g id="lock-alt"><path d="M11,6.5c0.552,0 1,0.448 1,1l0,5c0,0.552 -0.448,1 -1,1l-10,0c-0.552,0 -1,-0.448 -1,-1l0,-5c0,-0.552 0.448,-1 1,-1c0,0 10,0 10,0Zm-4.502,3.614l0,1.134c0,0.275 -0.224,0.5 -0.5,0.5c-0.276,0 -0.5,-0.225 -0.5,-0.5l0,-1.134c-0.299,-0.173 -0.5,-0.497 -0.5,-0.866c0,-0.552 0.448,-1 1,-1c0.552,0 1,0.448 1,1c0,0.369 -0.202,0.693 -0.5,0.866Zm-2.498,-3.614l-2,0l0,-2c0,-2.208 1.792,-4 4,-4c2.208,0 4,1.792 4,4l0,2l-2,0l0,-2c0,-1.104 -0.896,-2 -2,-2c-1.1,0 -1.993,0.889 -2,1.987l0,0.013l0,2Z"/></g></svg>