<?xml version="1.0" encoding="UTF-8" standalone="no"?><!DOCTYPE svg PUBLIC "-//W3C//DTD SVG 1.1//EN" "http://www.w3.org/Graphics/SVG/1.1/DTD/svg11.dtd"><svg width="100%" height="100%" viewBox="0 0 16 14" version="1.1" xmlns="http://www.w3.org/2000/svg" xmlns:xlink="http://www.w3.org/1999/xlink" xml:space="preserve" xmlns:serif="http://www.serif.com/" style="fill-rule:evenodd;clip-rule:evenodd;stroke-linejoin:round;stroke-miterlimit:1.41421;"><g id="thick"><path d="M5.186,9.502c-0.551,0 -1,-0.448 -1,-1l0,-3c0,-0.552 0.449,-1 1,-1l3.2,0l0,-2.928c0,-0.552 0.449,-1 1,-1c0.276,0 0.526,0.112 0.707,0.293l0.001,0l3.42,3.421l0.044,0l0,0.044l1.963,1.962l-0.001,0.001l0.001,0.001c0.39,0.39 0.39,1.024 0,1.414l-1.963,1.962l0,0.044l-0.044,0l-3.42,3.421l-0.001,0c-0.181,0.181 -0.431,0.293 -0.707,0.293c-0.551,0 -1,-0.448 -1,-1l0,-2.928l-3.2,0Z"/><path d="M5.186,2.57c0.552,0 1,-0.448 1,-1c0,-0.552 -0.448,-1 -1,-1l-4,0c-0.551,0 -1,0.448 -1,1l0,10.86c0,0 0,0.006 0,0.006c0.001,0.003 0.001,0.005 0.001,0.007l0,0l0,0.001l0,0.005l0,0l0,0l0,0.002l0,0.005l0,0l0,0l0,0.002l0,0.004l0,0l0,0l0,0.002l0,0.005l0,0l0,0l0,0.002l0,0.004l0,0l0,0l0.001,0.002l0,0.004l0,0l0,0l0,0.002l0,0.005l0,0l0,0l0,0.002l0,0.004l0,0l0.001,0l0,0.002l0,0.004l0,0l0,0.001l0,0.002l0,0.004l0,0l0,0l0.001,0.002l0,0.004l0,0l0,0l0,0.002l0,0.004l0,0l0,0.001l0.001,0.002l0,0.004l0,0l0,0l0,0.002l0.001,0.004l0,0l0,0l0,0.002l0,0.004l0,0l0,0l0.001,0.003l0,0.003l0,0.001l0,0l0,0.002l0.001,0.004l0,0l0,0l0,0.002l0,0.004l0,0l0.001,0l0,0.002l0,0.004l0,0l0,0.001l0.001,0.002l0,0.003l0,0.001l0,0l0,0.002l0.001,0.003l0,0.001l0,0l0,0.002l0.001,0.004l0,0l0,0l0,0.002l0.001,0.004l0,0l0,0l0,0.002l0.001,0.004l0,0l0,0.001l0,0.002l0.001,0.003l0,0.001l0,0l0,0.002l0.001,0.003l0,0.001l0,0l0,0.002l0.001,0.003l0,0.001l0,0l0.001,0.002l0,0.004l0,0l0,0l0.001,0.002l0,0.004l0.001,0l0,0l0,0.002l0.001,0.004l0,0l0,0l0,0.002l0.001,0.004l0,0l0,0.001l0,0.001l0.001,0.004l0,0l0,0.001l0.001,0.002l0.001,0.003l0,0l0,0.001l0,0.002l0.001,0.003l0,0l0,0.001l0.001,0.002l0,0.003l0,0l0.001,0.001l0,0.002l0.001,0.003l0,0l0,0.001l0,0.002l0.001,0.003l0,0l0,0.001l0.001,0.002l0.001,0.003l0,0l0,0.001l0,0.002l0.001,0.003l0,0l0.001,0.001l0,0.002l0.001,0.003l0,0l0,0.001l0.001,0.002l0,0.003l0.001,0l0,0.001l0,0.002l0.001,0.003l0,0l0,0.001l0.001,0.001l0.001,0.004l0,0l0,0.001l0.001,0.001l0.001,0.003l0,0.001l0,0l0,0.002l0.001,0.003l0.001,0.001l0,0l0,0.002l0.001,0.003l0,0.001l0,0l0.001,0.002l0.001,0.003l0,0.001l0,0l0.001,0.002l0.001,0.003l0,0.001l0,0l0.001,0.002l0.001,0.003l0,0l0,0.001l0.001,0.002l0.001,0.002l0,0.001l0,0.001l0.001,0.001l0.001,0.003l0,0.001l0,0l0.001,0.002l0.001,0.003l0,0.001l0,0l0.001,0.002l0.001,0.003l0,0l0,0.001l0.001,0.002l0.001,0.002l0,0.001l0,0.001l0.001,0.001l0.001,0.003l0,0.001l0,0l0.001,0.002l0.001,0.003l0,0.001l0,0l0.001,0.002l0.001,0.003l0,0l0.001,0.001l0,0.001l0.001,0.003l0.001,0.001l0,0.001l0.001,0.001l0.001,0.003l0,0.001l0,0l0.001,0.002l0.001,0.002l0,0.001l0,0.001l0.001,0.001l0.001,0.003l0.001,0.001l0,0l0,0.002l0.002,0.003l0,0.001l0,0l0.001,0.002l0.001,0.002l0,0.001l0,0.001l0.001,0.001l0.001,0.003l0.001,0.001l0,0l0.001,0.002l0.001,0.002l0,0.001l0,0.001l0.001,0.001l0.001,0.003l0.001,0.001l0,0l0.001,0.002l0.001,0.002l0,0.001l0,0.001l0.001,0.001l0.001,0.003l0.001,0.001l0,0l0.001,0.002l0.001,0.002l0,0.001l0.001,0.001l0,0.001l0.001,0.003l0.001,0.001l0,0l0.001,0.002l0.001,0.002l0.001,0.001l0,0.001l0.001,0.001l0.001,0.003l0,0.001l0,0l0.001,0.002l0.001,0.002l0.001,0.001l0,0.001l0.001,0.001l0.001,0.003l0.001,0.001l0,0l0.001,0.001l0.001,0.003l0,0.001l0.001,0l0,0.002l0.002,0.002l0,0.001l0.001,0.001l0,0.001l0.001,0.003l0.001,0.001l0,0l0.001,0.002l0.001,0.002l0.001,0.001l0,0l0.001,0.002l0.001,0.002l0.001,0.001l0,0.001l0.001,0.001l0.001,0.002l0.001,0.001l0,0.001l0.001,0.001l0.001,0.003l0.001,0.001l0,0l0.001,0.002l0.001,0.002l0.001,0.001l0,0.001l0.001,0.001l0.001,0.002l0.001,0.001l0,0.001l0.001,0.001l0.001,0.002l0.001,0.001l0,0.001l0.001,0.001l0.001,0.002l0.001,0.002l0,0l0.001,0.001l0.001,0.003l0.001,0.001l0,0l0.001,0.002l0.001,0.002l0.001,0.001l0,0.001l0.001,0.001l0.002,0.002l0,0.001l0.001,0.001l0,0.001l0.002,0.002l0,0.001l0.001,0.001l0.001,0.001l0.001,0.002l0.001,0.001l0,0.001l0.001,0.001l0.001,0.002l0.001,0.001l0,0.001l0.001,0.001l0.001,0.002l0.001,0.001l0.001,0.001l0,0.001l0.002,0.002l0.001,0.001l0,0.001l0.001,0.001l0.001,0.002l0.001,0.001l0,0.001l0.001,0.001l0.001,0.002l0.001,0.001l0.001,0.001l0,0.001l0.002,0.002l0.001,0.001l0,0.001l0.001,0.001l0.001,0.002l0.001,0.001l0.001,0.001l0,0.001l0.002,0.002l0.001,0.001l0,0.001l0.001,0.001l0.001,0.002l0.001,0.001l0.001,0.001l0,0.001l0.002,0.002l0.001,0.001l0,0l0.001,0.001l0.001,0.002l0.001,0.002l0.001,0l0,0.001l0.002,0.002l0.001,0.001l0,0.001l0.001,0.001l0.001,0.002l0.001,0.001l0.001,0.001l0.001,0.001l0.001,0.002l0.001,0.001l0.001,0.001l0,0.001l0.002,0.002l0.001,0.001l0,0l0.001,0.001l0.001,0.002l0.001,0.002l0.001,0l0.001,0.001l0.001,0.002l0.001,0.001l0.001,0.001l0,0.001l0.002,0.002l0.001,0.001l0,0.001l0.001,0l0.002,0.002l0.001,0.002l0,0l0.001,0.001l0.001,0.002l0.001,0.001l0.001,0.001l0.001,0.001l0.001,0.002l0.001,0.001l0.001,0.001l0,0l0.002,0.002l0.001,0.002l0.001,0l0,0.001l0.002,0.002l0.001,0.001l0.001,0.001l0,0.001l0.002,0.001l0.001,0.002l0,0l0.001,0.001l0.002,0.002l0.001,0.001l0,0.001l0.001,0.001l0.002,0.001l0.001,0.002l0,0l0.001,0.001l0.002,0.002l0.001,0.001l0,0.001l0.001,0.001l0.002,0.001l0.001,0.002l0,0l0.001,0.001l0.002,0.002l0.001,0.001l0,0.001l0.001,0l0.002,0.002l0.001,0.001l0.001,0.001l0,0.001l0.002,0.001l0.001,0.002l0.001,0l0,0.001l0.002,0.002l0.001,0.001l0.001,0.001l0,0l0.002,0.002l0.001,0.002l0.001,0l0.001,0.001l0.001,0.001l0.001,0.002l0.001,0l0.001,0.001l0.001,0.002l0.002,0.001l0,0.001l0.001,0l0.001,0.002l0.002,0.001l0.001,0.001l0,0.001l0.002,0.001l0.001,0.002l0.001,0l0,0.001l0.002,0.001l0.001,0.002l0.001,0l0.001,0.001l0.001,0.001l0.002,0.002l0,0.001l0.001,0l0.001,0.002l0.002,0.001l0.001,0.001l0,0l0.002,0.002l0.001,0.001l0.001,0.001l0.001,0l0.001,0.002l0.002,0.001l0,0.001l0.001,0l0.002,0.002l0.001,0.001l0.001,0.001l0,0.001l0.002,0.001l0.002,0.002l0,0l0.001,0.001l0.001,0.001l0.002,0.002l0.001,0l0,0.001l0.002,0.001l0.002,0.002l0,0l0.001,0.001l0.001,0.001l0.002,0.002l0.001,0l0,0.001l0.002,0.001l0.002,0.001l0,0.001l0.001,0l0.001,0.002l0.002,0.001l0.001,0.001l0,0l0.002,0.002l0.002,0.001l0,0.001l0.001,0l0.001,0.002l0.002,0.001l0.001,0.001l0,0l0.002,0.001l0.002,0.002l0.001,0.001l0,0l0.002,0.001l0.002,0.002l0,0l0.001,0.001l0.001,0.001l0.002,0.002l0.001,0l0,0.001l0.002,0.001l0.002,0.001l0.001,0.001l0,0l0.002,0.001l0.002,0.002l0,0.001l0.001,0l0.001,0.001l0.002,0.002l0.001,0l0,0.001l0.002,0.001l0.002,0.001l0.001,0.001l0,0l0.002,0.001l0.002,0.002l0.001,0.001l0,0l0.001,0.001l0.003,0.002l0,0l0.001,0.001l0.001,0.001l0.003,0.001l0,0.001l0.001,0l0.001,0.001l0.002,0.002l0.001,0l0,0.001l0.002,0.001l0.002,0.001l0.001,0.001l0,0l0.002,0.001l0.002,0.002l0.001,0l0,0.001l0.002,0.001l0.002,0.001l0.001,0.001l0,0l0.002,0.001l0.002,0.002l0.001,0l0,0.001l0.001,0.001l0.003,0.001l0.001,0.001l0,0l0.001,0.001l0.003,0.002l0.001,0l0,0l0.001,0.001l0.003,0.002l0.001,0l0,0.001l0.001,0.001l0.003,0.001l0.001,0.001l0,0l0.001,0.001l0.003,0.002l0.001,0l0,0l0.001,0.001l0.003,0.002l0.001,0l0,0.001l0.001,0.001l0.003,0.001l0.001,0.001l0,0l0.002,0.001l0.002,0.001l0.001,0.001l0,0l0.002,0.001l0.002,0.002l0.001,0l0,0l0.002,0.001l0.003,0.002l0,0l0,0l0.002,0.001l0.003,0.002l0,0l0.001,0l0.001,0.001l0.003,0.002l0,0l0.001,0.001l0.001,0l0.003,0.002l0.001,0l0,0.001l0.001,0l0.003,0.002l0.001,0l0,0.001l0.002,0l0.003,0.002l0,0l0,0.001l0.002,0l0.003,0.002l0,0l0.001,0.001l0.001,0l0.003,0.002l0.001,0l0,0l0.001,0.001l0.003,0.002l0.001,0l0,0l0.002,0.001l0.003,0.002l0,0l0.001,0l0.001,0.001l0.003,0.002l0.001,0l0,0l0.001,0.001l0.004,0.001l0,0.001l0,0l0.002,0.001l0.003,0.001l0,0.001l0.001,0l0.001,0l0.003,0.002l0.001,0l0,0l0.001,0.001l0.004,0.002l0,0l0,0l0.002,0.001l0.003,0.001l0.001,0.001l0,0l0.001,0l0.004,0.002l0,0l0,0l0.002,0.001l0.003,0.002l0.001,0l0,0l0.001,0.001l0.004,0.001l0,0.001l0,0l0.002,0l0.003,0.002l0.001,0l0,0l0.001,0.001l0.004,0.001l0,0.001l0,0l0.002,0l0.003,0.002l0.001,0l0,0l0.001,0.001l0.004,0.001l0,0.001l0,0l0.002,0l0.003,0.002l0.001,0l0,0l0.001,0.001l0.004,0.001l0,0l0,0l0.002,0.001l0.004,0.002l0,0l0,0l0.001,0l0.004,0.002l0.001,0l0,0l0.001,0.001l0.004,0.001l0,0l0,0l0.002,0.001l0.004,0.001l0,0.001l0,0l0.001,0l0.004,0.002l0.001,0l0,0l0.001,0l0.004,0.002l0,0l0,0l0.002,0l0.004,0.002l0,0l0,0l0.001,0.001l0.005,0.001l0,0l0,0l0.001,0.001l0.004,0.001l0.001,0l0,0l0.001,0.001l0.004,0.001l0,0l0,0l0.002,0.001l0.004,0.001l0,0l0,0l0.001,0.001l0.005,0.001l0,0l0,0l0.001,0.001l0.005,0.001l0,0l0,0l0.001,0.001l0.004,0.001l0.001,0l0,0l0.001,0.001l0.004,0.001l0,0l0,0l0.001,0.001l0.005,0.001l0,0l0,0l0.001,0l0.005,0.002l0,0l0,0l0.001,0l0.005,0.002l0,0l0,0l0.001,0l0.005,0.001l0,0c0.089,0.026 0.182,0.04 0.279,0.04l4,0c0.552,0 1,-0.448 1,-1c0,-0.552 -0.448,-1 -1,-1l-3,0l0,-8.86l3,0Z"/></g></svg>