<svg xmlns="http://www.w3.org/2000/svg" fill-rule="evenodd" stroke-linejoin="round" stroke-miterlimit="1" clip-rule="evenodd" version="1" viewBox="0 0 4750 3812"><path fill="#fff" fill-rule="nonzero" d="M97 3812c-54 0-97-37-97-82V82C0 37 43 0 97 0h155c54 0 97 37 97 82v3648c0 45-43 82-97 82H97z"/><path fill="#fff" fill-rule="nonzero" d="M0 97C0 44 44 0 97 0h1659c53 0 97 44 97 97v155c0 53-44 97-97 97H97c-53 0-97-44-97-97V97zm0 3463c0-53 44-97 97-97h1659c53 0 97 44 97 97v155c0 53-44 97-97 97H97c-53 0-97-44-97-97v-155z"/><path fill="#fff" d="M4494 1906c0-145-117-262-261-262H1586a262 262 0 0 0 0 523h2647c144 0 261-117 261-261z"/><path fill="#fff" d="M4673 2092a262 262 0 0 0 0-370L3450 498a262 262 0 0 0-370 370l1223 1224a262 262 0 0 0 370 0z"/><path fill="#fff" d="M4673 1720a262 262 0 0 0-370 0L3079 2943a262 262 0 0 0 370 370l1224-1223a262 262 0 0 0 0-370z"/></svg>