<?xml version="1.0" encoding="UTF-8" standalone="no"?><!DOCTYPE svg PUBLIC "-//W3C//DTD SVG 1.1//EN" "http://www.w3.org/Graphics/SVG/1.1/DTD/svg11.dtd"><svg width="100%" height="100%" viewBox="0 0 20 20" version="1.1" xmlns="http://www.w3.org/2000/svg" xmlns:xlink="http://www.w3.org/1999/xlink" xml:space="preserve" xmlns:serif="http://www.serif.com/" style="fill-rule:evenodd;clip-rule:evenodd;stroke-linejoin:round;stroke-miterlimit:1.41421;"><g id="thick"><path d="M10,6.25c2.07,0 3.75,1.68 3.75,3.75c0,2.07 -1.68,3.75 -3.75,3.75c-2.07,0 -3.75,-1.68 -3.75,-3.75c0,-2.07 1.68,-3.75 3.75,-3.75Zm0,2c0.966,0 1.75,0.784 1.75,1.75c0,0.966 -0.784,1.75 -1.75,1.75c-0.966,0 -1.75,-0.784 -1.75,-1.75c0,-0.966 0.784,-1.75 1.75,-1.75Z"/><path d="M8.542,2.387l0.455,-1.213c0.152,-0.405 0.54,-0.674 0.973,-0.674c0.038,0 0.077,0 0.114,0c0.401,0 0.759,0.248 0.9,0.623l0.474,1.264c0.372,0.071 0.735,0.169 1.086,0.291l1,-0.823c0.335,-0.275 0.805,-0.314 1.18,-0.097c0.033,0.019 0.066,0.038 0.099,0.057c0.347,0.2 0.533,0.594 0.467,0.989l-0.222,1.335c0.283,0.245 0.548,0.51 0.793,0.793l1.281,-0.213c0.427,-0.071 0.854,0.13 1.07,0.505c0.019,0.033 0.039,0.066 0.057,0.099c0.201,0.347 0.165,0.781 -0.09,1.091l-0.857,1.042c0.122,0.351 0.22,0.714 0.291,1.086l1.213,0.455c0.405,0.152 0.674,0.54 0.674,0.973c0,0.038 0,0.076 0,0.114c0,0.401 -0.248,0.759 -0.623,0.9l-1.264,0.474c-0.071,0.372 -0.169,0.735 -0.291,1.086l0.823,1c0.275,0.335 0.314,0.805 0.097,1.18c-0.019,0.033 -0.038,0.066 -0.057,0.099c-0.2,0.347 -0.594,0.533 -0.989,0.467l-1.335,-0.222c-0.245,0.283 -0.51,0.548 -0.793,0.793l0.213,1.281c0.071,0.427 -0.13,0.854 -0.505,1.07c-0.033,0.019 -0.066,0.038 -0.099,0.057c-0.347,0.201 -0.781,0.165 -1.091,-0.09l-1.042,-0.857c-0.351,0.122 -0.714,0.22 -1.086,0.291l-0.455,1.213c-0.152,0.405 -0.54,0.674 -0.973,0.674c-0.038,0 -0.076,0 -0.114,0c-0.401,0 -0.759,-0.248 -0.9,-0.623l-0.474,-1.264c-0.372,-0.071 -0.735,-0.169 -1.086,-0.291l-1,0.823c-0.335,0.275 -0.805,0.314 -1.18,0.097c-0.033,-0.019 -0.066,-0.038 -0.099,-0.057c-0.347,-0.2 -0.533,-0.594 -0.467,-0.989l0.222,-1.335c-0.283,-0.245 -0.548,-0.51 -0.793,-0.793l-1.281,0.213c-0.427,0.071 -0.854,-0.13 -1.07,-0.505c-0.019,-0.033 -0.038,-0.066 -0.057,-0.099c-0.201,-0.347 -0.165,-0.781 0.09,-1.091l0.857,-1.042c-0.122,-0.351 -0.22,-0.714 -0.291,-1.086l-1.213,-0.455c-0.405,-0.152 -0.674,-0.54 -0.674,-0.973c0,-0.038 0,-0.076 0,-0.114c0,-0.401 0.248,-0.759 0.623,-0.9l1.264,-0.474c0.071,-0.372 0.169,-0.735 0.291,-1.086l-0.823,-1c-0.275,-0.335 -0.314,-0.805 -0.097,-1.18c0.019,-0.033 0.038,-0.066 0.057,-0.099c0.2,-0.347 0.594,-0.533 0.989,-0.467l1.335,0.222c0.245,-0.283 0.51,-0.548 0.793,-0.793l-0.213,-1.281c-0.071,-0.427 0.13,-0.854 0.505,-1.07c0.033,-0.019 0.066,-0.038 0.099,-0.057c0.347,-0.201 0.781,-0.165 1.091,0.09l1.042,0.857c0.351,-0.122 0.714,-0.22 1.086,-0.291Zm1.458,1.863c3.174,0 5.75,2.576 5.75,5.75c0,3.174 -2.576,5.75 -5.75,5.75c-3.174,0 -5.75,-2.576 -5.75,-5.75c0,-3.174 2.576,-5.75 5.75,-5.75Z"/></g></svg>