<?xml version="1.0" encoding="UTF-8" standalone="no"?><!DOCTYPE svg PUBLIC "-//W3C//DTD SVG 1.1//EN" "http://www.w3.org/Graphics/SVG/1.1/DTD/svg11.dtd"><svg width="100%" height="100%" viewBox="0 0 16 20" version="1.1" xmlns="http://www.w3.org/2000/svg" xmlns:xlink="http://www.w3.org/1999/xlink" xml:space="preserve" xmlns:serif="http://www.serif.com/" style="fill-rule:evenodd;clip-rule:evenodd;stroke-linejoin:round;stroke-miterlimit:1.41421;"><g id="thick"><path d="M10.199,1c0,-0.552 0.448,-1 1,-1c0.291,0 0.553,0.124 0.736,0.323l0,-0.001l3.274,3.275l0,0c0.181,0.181 0.293,0.43 0.293,0.706c0,0.552 -0.448,1 -1,1l0,0l-4.303,0l0,-1l0,-3.303l0,0Z"/><path d="M8.2,0c0.567,0.05 0.951,0.431 0.999,1l0,5.303l5.291,0l0,0c0.004,0 0.008,0 0.012,0c0.519,0 0.946,0.397 1,1l0,0l0,11.697l0,0c-0.092,0.638 -0.504,1 -1,1l0,0l-13.004,0c-0.552,0 -1,-0.448 -1,-1l0,-18c0,-0.552 0.448,-1 1,-1l6.702,0Z"/></g></svg>