<?xml version="1.0" encoding="UTF-8" standalone="no"?><!DOCTYPE svg PUBLIC "-//W3C//DTD SVG 1.1//EN" "http://www.w3.org/Graphics/SVG/1.1/DTD/svg11.dtd"><svg width="100%" height="100%" viewBox="0 0 20 20" version="1.1" xmlns="http://www.w3.org/2000/svg" xmlns:xlink="http://www.w3.org/1999/xlink" xml:space="preserve" xmlns:serif="http://www.serif.com/" style="fill-rule:evenodd;clip-rule:evenodd;stroke-linejoin:round;stroke-miterlimit:1.41421;"><path id="thick" d="M9.293,1.043c0.181,-0.181 0.431,-0.293 0.707,-0.293c0.276,0 0.526,0.112 0.707,0.293l0,0l3.293,3.293l0,-0.586c0,-0.552 0.448,-1 1,-1c0.552,0 1,0.448 1,1l0,2.586l3.707,3.707l0,0c0.181,0.181 0.293,0.431 0.293,0.707c0,0.552 -0.448,1 -1,1l-3,0l0,6.5c0,0.552 -0.448,1 -1,1c0,0 -10,0 -10,0c-0.552,0 -1,-0.448 -1,-1l0,-6.5l-3,0c-0.552,0 -1,-0.448 -1,-1c0,-0.276 0.112,-0.526 0.293,-0.707l0,0l9,-9l0,0Z"/></svg>