<?xml version="1.0" encoding="UTF-8" standalone="no"?><!DOCTYPE svg PUBLIC "-//W3C//DTD SVG 1.1//EN" "http://www.w3.org/Graphics/SVG/1.1/DTD/svg11.dtd"><svg width="100%" height="100%" viewBox="0 0 50 50" version="1.1" xmlns="http://www.w3.org/2000/svg" xmlns:xlink="http://www.w3.org/1999/xlink" xml:space="preserve" xmlns:serif="http://www.serif.com/" style="fill-rule:evenodd;clip-rule:evenodd;stroke-linejoin:round;stroke-miterlimit:1.41421;"><path d="M25.103,0.001l0.124,0.002l0.124,0.004l0.124,0.005l0.124,0.006l0.124,0.009l0.124,0.009l0.124,0.011l0.124,0.013l0.123,0.014l0.124,0.015l0.123,0.017l0.123,0.019l0.123,0.02l0.122,0.021l0.123,0.023l0.122,0.025l0.122,0.026l0.122,0.027l0.121,0.029l0.121,0.03l0.121,0.032l0.12,0.033l0.121,0.035l0.119,0.036l0.12,0.038l0.119,0.039l0.119,0.041l0.118,0.042l0.118,0.043l0.117,0.046l0.117,0.046l0.117,0.048l0.116,0.05l0.116,0.051l0.115,0.052l0.114,0.054l0.114,0.056l0.114,0.057l0.113,0.058l0.112,0.06l0.112,0.061l0.111,0.063l0.11,0.065l0.11,0.065l0.11,0.068l0.108,0.068l0.108,0.071l0.107,0.071l0.107,0.074l0.106,0.074l0.105,0.076l0.104,0.078l0.103,0.079l0.103,0.081l0.102,0.082l0.101,0.083l0.101,0.085l0.099,0.087l0.099,0.088l0.098,0.089l0.097,0.091l0.096,0.093l0.095,0.094l14.633,14.633l0.094,0.095l0.092,0.096l0.091,0.097l0.09,0.098l0.088,0.099l0.086,0.099l0.085,0.1l0.084,0.102l0.082,0.102l0.081,0.102l0.079,0.104l0.077,0.104l0.077,0.105l0.074,0.106l0.073,0.107l0.072,0.107l0.07,0.108l0.069,0.108l0.067,0.109l0.066,0.11l0.065,0.111l0.062,0.111l0.062,0.112l0.06,0.112l0.058,0.113l0.057,0.114l0.056,0.114l0.054,0.114l0.052,0.115l0.051,0.116l0.05,0.116l0.048,0.116l0.046,0.117l0.045,0.118l0.044,0.118l0.042,0.118l0.041,0.119l0.039,0.119l0.038,0.119l0.036,0.12l0.035,0.12l0.033,0.121l0.032,0.121l0.03,0.121l0.029,0.121l0.027,0.122l0.026,0.122l0.025,0.122l0.022,0.123l0.022,0.122l0.02,0.123l0.018,0.123l0.017,0.123l0.016,0.124l0.014,0.123l0.012,0.124l0.012,0.124l0.009,0.123l0.008,0.124l0.007,0.124l0.005,0.124l0.004,0.125l0.002,0.124l0.001,0.124l-0.001,0.124l-0.002,0.124l-0.004,0.124l-0.005,0.124l-0.007,0.124l-0.008,0.124l-0.009,0.124l-0.012,0.124l-0.012,0.124l-0.014,0.123l-0.016,0.124l-0.017,0.123l-0.018,0.123l-0.02,0.123l-0.022,0.122l-0.022,0.123l-0.025,0.122l-0.026,0.122l-0.027,0.122l-0.029,0.121l-0.03,0.121l-0.032,0.121l-0.033,0.12l-0.035,0.121l-0.036,0.119l-0.038,0.12l-0.039,0.119l-0.041,0.119l-0.042,0.118l-0.044,0.118l-0.045,0.117l-0.046,0.117l-0.048,0.117l-0.05,0.116l-0.051,0.116l-0.052,0.115l-0.054,0.114l-0.056,0.114l-0.057,0.114l-0.058,0.113l-0.06,0.112l-0.062,0.112l-0.062,0.111l-0.065,0.11l-0.066,0.11l-0.067,0.11l-0.069,0.108l-0.07,0.108l-0.072,0.107l-0.073,0.107l-0.074,0.106l-0.077,0.105l-0.077,0.104l-0.079,0.103l-0.081,0.103l-0.082,0.102l-0.084,0.101l-0.085,0.101l-0.086,0.099l-0.088,0.099l-0.09,0.098l-0.091,0.097l-0.092,0.096l-0.094,0.095l-14.633,14.633l-0.095,0.094l-0.096,0.092l-0.097,0.091l-0.098,0.09l-0.099,0.088l-0.099,0.086l-0.101,0.085l-0.101,0.084l-0.102,0.082l-0.103,0.081l-0.103,0.079l-0.104,0.077l-0.105,0.077l-0.106,0.074l-0.107,0.073l-0.107,0.072l-0.108,0.07l-0.108,0.069l-0.11,0.067l-0.11,0.066l-0.11,0.065l-0.111,0.062l-0.112,0.062l-0.112,0.06l-0.113,0.058l-0.114,0.057l-0.114,0.056l-0.114,0.054l-0.115,0.052l-0.116,0.051l-0.116,0.05l-0.117,0.048l-0.117,0.046l-0.117,0.045l-0.118,0.044l-0.118,0.042l-0.119,0.041l-0.119,0.039l-0.12,0.038l-0.119,0.036l-0.121,0.035l-0.12,0.033l-0.121,0.032l-0.121,0.03l-0.121,0.029l-0.122,0.027l-0.122,0.026l-0.122,0.025l-0.123,0.022l-0.122,0.022l-0.123,0.02l-0.123,0.018l-0.123,0.017l-0.124,0.016l-0.123,0.014l-0.124,0.012l-0.124,0.012l-0.124,0.009l-0.124,0.008l-0.124,0.007l-0.124,0.005l-0.124,0.004l-0.124,0.002l-0.124,0.001l-0.124,-0.001l-0.124,-0.002l-0.125,-0.004l-0.124,-0.005l-0.124,-0.007l-0.124,-0.008l-0.123,-0.009l-0.124,-0.012l-0.124,-0.012l-0.123,-0.014l-0.124,-0.016l-0.123,-0.017l-0.123,-0.018l-0.123,-0.02l-0.122,-0.022l-0.123,-0.022l-0.122,-0.025l-0.122,-0.026l-0.122,-0.027l-0.121,-0.029l-0.121,-0.03l-0.121,-0.032l-0.121,-0.033l-0.12,-0.035l-0.12,-0.036l-0.119,-0.038l-0.119,-0.039l-0.119,-0.041l-0.118,-0.042l-0.118,-0.044l-0.118,-0.045l-0.117,-0.046l-0.116,-0.048l-0.116,-0.05l-0.116,-0.051l-0.115,-0.052l-0.114,-0.054l-0.114,-0.056l-0.114,-0.057l-0.113,-0.058l-0.112,-0.06l-0.112,-0.062l-0.111,-0.062l-0.111,-0.065l-0.11,-0.066l-0.109,-0.067l-0.108,-0.069l-0.108,-0.07l-0.107,-0.072l-0.107,-0.073l-0.106,-0.074l-0.105,-0.077l-0.104,-0.077l-0.104,-0.079l-0.102,-0.081l-0.102,-0.082l-0.102,-0.084l-0.1,-0.085l-0.099,-0.086l-0.099,-0.088l-0.098,-0.09l-0.097,-0.091l-0.096,-0.092l-0.095,-0.094l-14.633,-14.633l-0.094,-0.095l-0.093,-0.096l-0.091,-0.097l-0.089,-0.098l-0.088,-0.099l-0.087,-0.099l-0.085,-0.101l-0.083,-0.101l-0.082,-0.102l-0.081,-0.103l-0.079,-0.103l-0.078,-0.104l-0.076,-0.105l-0.074,-0.106l-0.074,-0.107l-0.071,-0.107l-0.071,-0.108l-0.068,-0.108l-0.068,-0.11l-0.065,-0.11l-0.065,-0.11l-0.063,-0.111l-0.061,-0.112l-0.06,-0.112l-0.058,-0.113l-0.057,-0.114l-0.056,-0.114l-0.054,-0.114l-0.052,-0.115l-0.051,-0.116l-0.05,-0.116l-0.048,-0.117l-0.046,-0.117l-0.046,-0.117l-0.043,-0.118l-0.042,-0.118l-0.041,-0.119l-0.039,-0.119l-0.038,-0.12l-0.036,-0.119l-0.035,-0.121l-0.033,-0.12l-0.032,-0.121l-0.03,-0.121l-0.029,-0.121l-0.027,-0.122l-0.026,-0.122l-0.025,-0.122l-0.023,-0.123l-0.021,-0.122l-0.02,-0.123l-0.019,-0.123l-0.017,-0.123l-0.015,-0.124l-0.014,-0.123l-0.013,-0.124l-0.011,-0.124l-0.009,-0.124l-0.009,-0.124l-0.006,-0.124l-0.005,-0.124l-0.004,-0.124l-0.002,-0.124l-0.001,-0.124l0.001,-0.124l0.002,-0.124l0.004,-0.125l0.005,-0.124l0.006,-0.124l0.009,-0.124l0.009,-0.123l0.011,-0.124l0.013,-0.124l0.014,-0.123l0.015,-0.124l0.017,-0.123l0.019,-0.123l0.02,-0.123l0.021,-0.122l0.023,-0.123l0.025,-0.122l0.026,-0.122l0.027,-0.122l0.029,-0.121l0.03,-0.121l0.032,-0.121l0.033,-0.121l0.035,-0.12l0.036,-0.12l0.038,-0.119l0.039,-0.119l0.041,-0.119l0.042,-0.118l0.043,-0.118l0.046,-0.118l0.046,-0.117l0.048,-0.116l0.05,-0.116l0.051,-0.116l0.052,-0.115l0.054,-0.114l0.056,-0.114l0.057,-0.114l0.058,-0.113l0.06,-0.112l0.061,-0.112l0.063,-0.111l0.065,-0.111l0.065,-0.11l0.068,-0.109l0.068,-0.108l0.071,-0.108l0.071,-0.107l0.074,-0.107l0.074,-0.106l0.076,-0.105l0.078,-0.104l0.079,-0.104l0.081,-0.102l0.082,-0.102l0.083,-0.102l0.085,-0.1l0.087,-0.099l0.088,-0.099l0.089,-0.098l0.091,-0.097l0.093,-0.096l0.094,-0.095l14.633,-14.633l0.095,-0.094l0.096,-0.093l0.097,-0.091l0.098,-0.089l0.099,-0.088l0.099,-0.087l0.1,-0.085l0.102,-0.083l0.102,-0.082l0.102,-0.081l0.104,-0.079l0.104,-0.078l0.105,-0.076l0.106,-0.074l0.107,-0.074l0.107,-0.071l0.108,-0.071l0.108,-0.068l0.109,-0.068l0.11,-0.065l0.111,-0.065l0.111,-0.063l0.112,-0.061l0.112,-0.06l0.113,-0.058l0.114,-0.057l0.114,-0.056l0.114,-0.054l0.115,-0.052l0.116,-0.051l0.116,-0.05l0.116,-0.048l0.117,-0.046l0.118,-0.046l0.118,-0.043l0.118,-0.042l0.119,-0.041l0.119,-0.039l0.119,-0.038l0.12,-0.036l0.12,-0.035l0.121,-0.033l0.121,-0.032l0.121,-0.03l0.121,-0.029l0.122,-0.027l0.122,-0.026l0.122,-0.025l0.123,-0.023l0.122,-0.021l0.123,-0.02l0.123,-0.019l0.123,-0.017l0.124,-0.015l0.123,-0.014l0.124,-0.013l0.124,-0.011l0.123,-0.009l0.124,-0.009l0.124,-0.006l0.124,-0.005l0.125,-0.004l0.124,-0.002l0.124,-0.001l0.124,0.001Zm-0.236,1l-0.113,0.002l-0.112,0.003l-0.112,0.005l-0.112,0.006l-0.112,0.007l-0.112,0.009l-0.112,0.01l-0.112,0.011l-0.111,0.013l-0.112,0.014l-0.111,0.015l-0.111,0.017l-0.111,0.018l-0.111,0.019l-0.111,0.021l-0.11,0.022l-0.111,0.024l-0.11,0.024l-0.109,0.026l-0.11,0.028l-0.109,0.028l-0.109,0.03l-0.108,0.032l-0.108,0.033l-0.108,0.034l-0.108,0.035l-0.107,0.037l-0.107,0.038l-0.106,0.039l-0.106,0.041l-0.106,0.042l-0.105,0.043l-0.105,0.045l-0.104,0.046l-0.104,0.048l-0.104,0.048l-0.103,0.05l-0.102,0.052l-0.102,0.052l-0.101,0.054l-0.101,0.056l-0.1,0.057l-0.1,0.058l-0.099,0.059l-0.099,0.061l-0.098,0.062l-0.097,0.063l-0.097,0.065l-0.096,0.066l-0.096,0.068l-0.095,0.068l-0.094,0.07l-0.093,0.072l-0.093,0.073l-0.092,0.074l-0.092,0.075l-0.091,0.077l-0.089,0.078l-0.09,0.08l-0.088,0.081l-0.088,0.082l-0.087,0.084l-0.088,0.087l-14.629,14.629l-0.087,0.088l-0.084,0.087l-0.082,0.088l-0.081,0.088l-0.08,0.09l-0.078,0.089l-0.077,0.091l-0.075,0.092l-0.074,0.092l-0.073,0.093l-0.072,0.093l-0.07,0.094l-0.068,0.095l-0.068,0.096l-0.066,0.096l-0.065,0.097l-0.063,0.097l-0.062,0.098l-0.061,0.099l-0.059,0.099l-0.058,0.1l-0.057,0.1l-0.056,0.101l-0.054,0.101l-0.052,0.102l-0.052,0.102l-0.05,0.103l-0.048,0.104l-0.048,0.104l-0.046,0.104l-0.045,0.105l-0.043,0.105l-0.042,0.106l-0.041,0.106l-0.039,0.106l-0.038,0.107l-0.037,0.107l-0.035,0.108l-0.034,0.108l-0.033,0.108l-0.032,0.108l-0.03,0.109l-0.028,0.109l-0.028,0.11l-0.026,0.109l-0.024,0.11l-0.024,0.111l-0.022,0.11l-0.021,0.111l-0.019,0.111l-0.018,0.111l-0.017,0.111l-0.015,0.111l-0.014,0.112l-0.013,0.111l-0.011,0.112l-0.01,0.112l-0.009,0.112l-0.007,0.112l-0.006,0.112l-0.005,0.112l-0.003,0.112l-0.002,0.113l-0.001,0.112l0.001,0.112l0.002,0.112l0.003,0.113l0.005,0.112l0.006,0.112l0.007,0.112l0.009,0.112l0.01,0.112l0.011,0.112l0.013,0.111l0.014,0.112l0.015,0.111l0.017,0.111l0.018,0.111l0.019,0.111l0.021,0.111l0.022,0.11l0.024,0.11l0.024,0.11l0.026,0.11l0.028,0.109l0.028,0.11l0.03,0.108l0.032,0.109l0.033,0.108l0.034,0.108l0.035,0.108l0.037,0.107l0.038,0.107l0.039,0.106l0.041,0.106l0.042,0.106l0.043,0.105l0.045,0.105l0.046,0.104l0.048,0.104l0.048,0.103l0.05,0.103l0.052,0.103l0.052,0.102l0.054,0.101l0.056,0.101l0.057,0.1l0.058,0.1l0.059,0.099l0.061,0.099l0.062,0.098l0.063,0.097l0.065,0.097l0.066,0.096l0.068,0.096l0.068,0.095l0.07,0.094l0.072,0.093l0.073,0.093l0.074,0.092l0.075,0.092l0.077,0.09l0.078,0.09l0.08,0.089l0.081,0.089l0.082,0.088l0.084,0.086l0.087,0.089l14.629,14.629l0.088,0.087l0.087,0.084l0.088,0.082l0.088,0.081l0.09,0.079l0.089,0.079l0.091,0.076l0.092,0.076l0.092,0.074l0.093,0.073l0.093,0.071l0.094,0.071l0.095,0.068l0.096,0.068l0.096,0.066l0.097,0.065l0.097,0.063l0.098,0.062l0.099,0.061l0.099,0.059l0.1,0.058l0.1,0.057l0.101,0.055l0.101,0.054l0.102,0.053l0.102,0.052l0.103,0.05l0.104,0.048l0.104,0.048l0.104,0.046l0.105,0.044l0.105,0.044l0.106,0.042l0.106,0.041l0.106,0.039l0.107,0.038l0.107,0.037l0.108,0.035l0.108,0.034l0.108,0.033l0.108,0.031l0.109,0.03l0.109,0.029l0.11,0.028l0.109,0.026l0.11,0.024l0.111,0.024l0.11,0.022l0.111,0.02l0.111,0.02l0.111,0.018l0.111,0.017l0.111,0.015l0.112,0.014l0.111,0.013l0.112,0.011l0.112,0.01l0.112,0.009l0.112,0.007l0.112,0.006l0.112,0.005l0.112,0.003l0.113,0.002l0.112,0.001l0.112,-0.001l0.112,-0.002l0.113,-0.003l0.112,-0.005l0.112,-0.006l0.112,-0.007l0.112,-0.009l0.112,-0.01l0.112,-0.011l0.111,-0.013l0.112,-0.014l0.111,-0.015l0.111,-0.017l0.111,-0.018l0.111,-0.02l0.111,-0.02l0.11,-0.022l0.11,-0.024l0.11,-0.024l0.11,-0.026l0.109,-0.028l0.11,-0.029l0.108,-0.03l0.109,-0.031l0.108,-0.033l0.108,-0.034l0.108,-0.035l0.107,-0.037l0.107,-0.038l0.106,-0.039l0.106,-0.041l0.106,-0.042l0.105,-0.044l0.105,-0.044l0.104,-0.046l0.104,-0.048l0.103,-0.048l0.103,-0.05l0.103,-0.052l0.102,-0.053l0.101,-0.054l0.101,-0.055l0.1,-0.057l0.1,-0.058l0.099,-0.059l0.099,-0.061l0.098,-0.062l0.097,-0.063l0.097,-0.065l0.096,-0.066l0.096,-0.068l0.095,-0.068l0.094,-0.071l0.093,-0.071l0.093,-0.073l0.092,-0.074l0.092,-0.076l0.09,-0.076l0.09,-0.079l0.089,-0.079l0.089,-0.081l0.088,-0.082l0.086,-0.084l0.089,-0.087l14.629,-14.629l0.087,-0.089l0.084,-0.086l0.082,-0.088l0.081,-0.089l0.079,-0.089l0.079,-0.09l0.076,-0.09l0.076,-0.092l0.074,-0.092l0.073,-0.093l0.071,-0.093l0.071,-0.094l0.068,-0.095l0.068,-0.096l0.066,-0.096l0.065,-0.097l0.063,-0.097l0.062,-0.098l0.061,-0.099l0.059,-0.099l0.058,-0.1l0.057,-0.1l0.055,-0.101l0.054,-0.101l0.053,-0.102l0.052,-0.103l0.05,-0.103l0.048,-0.103l0.048,-0.104l0.046,-0.104l0.044,-0.105l0.044,-0.105l0.042,-0.106l0.041,-0.106l0.039,-0.106l0.038,-0.107l0.037,-0.107l0.035,-0.108l0.034,-0.108l0.033,-0.108l0.031,-0.109l0.03,-0.108l0.029,-0.11l0.028,-0.109l0.026,-0.11l0.024,-0.11l0.024,-0.11l0.022,-0.11l0.02,-0.111l0.02,-0.111l0.018,-0.111l0.017,-0.111l0.015,-0.111l0.014,-0.112l0.013,-0.111l0.011,-0.112l0.01,-0.112l0.009,-0.112l0.007,-0.112l0.006,-0.112l0.005,-0.112l0.003,-0.113l0.002,-0.112l0.001,-0.112l-0.001,-0.112l-0.002,-0.113l-0.003,-0.112l-0.005,-0.112l-0.006,-0.112l-0.007,-0.112l-0.009,-0.112l-0.01,-0.112l-0.011,-0.112l-0.013,-0.111l-0.014,-0.112l-0.015,-0.111l-0.017,-0.111l-0.018,-0.111l-0.02,-0.111l-0.02,-0.111l-0.022,-0.11l-0.024,-0.111l-0.024,-0.11l-0.026,-0.109l-0.028,-0.11l-0.029,-0.109l-0.03,-0.109l-0.031,-0.108l-0.033,-0.108l-0.034,-0.108l-0.035,-0.108l-0.037,-0.107l-0.038,-0.107l-0.039,-0.106l-0.041,-0.106l-0.042,-0.106l-0.044,-0.105l-0.044,-0.105l-0.046,-0.104l-0.048,-0.104l-0.048,-0.104l-0.05,-0.103l-0.052,-0.102l-0.053,-0.102l-0.054,-0.101l-0.055,-0.101l-0.057,-0.1l-0.058,-0.1l-0.059,-0.099l-0.061,-0.099l-0.062,-0.098l-0.063,-0.097l-0.065,-0.097l-0.066,-0.096l-0.068,-0.096l-0.068,-0.095l-0.071,-0.094l-0.071,-0.093l-0.073,-0.093l-0.074,-0.092l-0.076,-0.092l-0.076,-0.091l-0.079,-0.089l-0.079,-0.09l-0.081,-0.088l-0.082,-0.088l-0.084,-0.087l-0.087,-0.088l-14.629,-14.629l-0.089,-0.087l-0.086,-0.084l-0.088,-0.082l-0.089,-0.081l-0.089,-0.08l-0.09,-0.078l-0.09,-0.077l-0.092,-0.075l-0.092,-0.074l-0.093,-0.073l-0.093,-0.072l-0.094,-0.07l-0.095,-0.068l-0.096,-0.068l-0.096,-0.066l-0.097,-0.065l-0.097,-0.063l-0.098,-0.062l-0.099,-0.061l-0.099,-0.059l-0.1,-0.058l-0.1,-0.057l-0.101,-0.056l-0.101,-0.054l-0.102,-0.052l-0.103,-0.052l-0.103,-0.05l-0.103,-0.048l-0.104,-0.048l-0.104,-0.046l-0.105,-0.045l-0.105,-0.043l-0.106,-0.042l-0.106,-0.041l-0.106,-0.039l-0.107,-0.038l-0.107,-0.037l-0.108,-0.035l-0.108,-0.034l-0.108,-0.033l-0.109,-0.032l-0.108,-0.03l-0.11,-0.028l-0.109,-0.028l-0.11,-0.026l-0.11,-0.024l-0.11,-0.024l-0.11,-0.022l-0.111,-0.021l-0.111,-0.019l-0.111,-0.018l-0.111,-0.017l-0.111,-0.015l-0.112,-0.014l-0.111,-0.013l-0.112,-0.011l-0.112,-0.01l-0.112,-0.009l-0.112,-0.007l-0.112,-0.006l-0.112,-0.005l-0.113,-0.003l-0.112,-0.002l-0.112,-0.001l-0.112,0.001Z"/><g><path d="M12.868,33.327l0,-16.697l9.33,0l0,1.772l-6.961,0l0,5.358l5.833,0l0,1.749l-5.833,0l0,6.047l7.446,0l0,1.771l-9.815,0Z" style="fill-rule:nonzero;"/><path d="M23.416,33.327l5.54,-8.382l-5.269,-8.315l2.798,0l4.016,6.296l4.22,-6.296l2.233,0l-5.336,8.067l5.472,8.63l-2.798,0l-4.242,-6.622l-4.389,6.622l-2.245,0Z" style="fill-rule:nonzero;"/></g></svg>