<svg xmlns="http://www.w3.org/2000/svg" fill-rule="evenodd" stroke-linejoin="round" stroke-miterlimit="1.4" clip-rule="evenodd" viewBox="0 0 388 412"><path d="M52.6 2.4a71 71 0 1 0 36.9 137.2A71 71 0 0 0 52.6 2.4z"/><path d="M70 70.4a22 22 0 0 1 29.9-8c47 27 168.1 97 215 124.1a22 22 0 0 1-22 38L78 100.4a22 22 0 0 1-8-30zM52.6 408.9a71 71 0 1 1 36.9-137.2 71 71 0 0 1-36.9 137.2z"/><path d="M72.1 339.6a22 22 0 0 0 30 8c46.6-26.8 166.2-96 212.9-122.8a22 22 0 0 0-22-38L80.1 309.7a22 22 0 0 0-8 30z"/><circle cx="316" cy="205.6" r="71"/></svg>